
<svg  version="1.0" xmlns="http://www.w3.org/2000/svg" xmlns:xlink="http://www.w3.org/1999/xlink">
         <defs>
        <!-- <symbol id="icon-play"   viewBox="0 0 30 30">
          <path d="M15.000,30.000 C6.712,30.000 -0.000,23.287 -0.000,15.000 C-0.000,6.712 6.712,-0.000 15.000,-0.000 C23.287,-0.000 30.000,6.712 30.000,15.000 C30.000,23.287 23.287,30.000 15.000,30.000 ZM15.000,0.937 C7.237,0.937 0.937,7.237 0.937,15.000 C0.937,22.762 7.237,29.062 15.000,29.062 C22.762,29.062 29.062,22.762 29.062,15.000 C29.062,7.237 22.762,0.937 15.000,0.937 ZM12.187,21.375 C11.775,21.637 11.437,21.450 11.437,20.962 L11.437,9.037 C11.437,8.512 11.775,8.325 12.187,8.625 L20.700,14.437 C21.150,14.737 21.150,15.187 20.737,15.487 L12.187,21.375 Z"></path>
        </symbol> -->
        <symbol id="icon-play" xmlns="http://www.w3.org/2000/svg"  version="1.1" x="0px" y="0px" viewBox="0 0 100 125" enable-background="new 0 0 100 100" xml:space="preserve">
            <path d="M50,0C22.4,0,0,22.4,0,50s22.4,50,50,50s50-22.4,50-50S77.6,0,50,0z M39,70V30l30,20L39,70z" />
        </symbol>
        <symbol id="icon-sound"   viewbox="0 0 24 24">
          <path d="M22 0v24l-11-6v-2.278l9 4.909v-17.262l-9 4.91v-2.279l11-6zm-13 6v12h-7v-12h7zm-2 2h-3v8h3v-8z"></path>
        </symbol>
        <symbol id="icon-image"   viewbox="0 0 24 24">
          <path d="M5 8.5c0-.828.672-1.5 1.5-1.5s1.5.672 1.5 1.5c0 .829-.672 1.5-1.5 1.5s-1.5-.671-1.5-1.5zm9 .5-2.519 4-2.481-1.96-4 5.96h14l-5-8zm8-4v14h-20v-14h20zm2-2h-24v18h24v-18z"></path>
        </symbol>
        <!-- <symbol id="icon-chevron-right"   viewbox="0 0 10 10">
          <path d="M238.475 475.535l7.071-7.07c4.686-4.686 4.686-12.284 0-16.971L50.053 256 245.546 60.506c4.686-4.686 4.686-12.284 0-16.971l-7.071-7.07c-4.686-4.686-12.284-4.686-16.97 0L10.454 247.515c-4.686 4.686-4.686 12.284 0 16.971l211.051 211.05c4.686 4.686 12.284 4.686 16.97-.001z"></path>
        </symbol> -->
        <symbol id="icon-chevron-right"  x="0px" y="0px" viewBox="0 0 477.175 477.175" xml:space="preserve">
            <path d="M360.731,229.075l-225.1-225.1c-5.3-5.3-13.8-5.3-19.1,0s-5.3,13.8,0,19.1l215.5,215.5l-215.5,215.5
              c-5.3,5.3-5.3,13.8,0,19.1c2.6,2.6,6.1,4,9.5,4c3.4,0,6.9-1.3,9.5-4l225.1-225.1C365.931,242.875,365.931,234.275,360.731,229.075z
              "></path>
        </symbol>

        <symbol id="icon-chevron-left" x="0px" y="0px" viewBox="0 0 1000 1000" enable-background="new 0 0 1000 1000" xml:space="preserve">
        <path d="M732.1,989.9c6.6,0,13.2-2.5,18.3-7.5c10.1-10.1,10.1-26.4,0-36.5l-446-446l446-446c10.1-10.1,10.1-26.4,0-36.5c-10.1-10.1-26.4-10.1-36.5,0L249.7,481.8c-10.1,10.1-10.1,26.4,0,36.5l464.2,464.2C718.9,987.5,725.5,990,732.1,989.9L732.1,989.9z"></path>
        </symbol>
        <!-- <symbol id="icon-chevron-left"   viewbox="0 0 10 10">
          <path d="M17.525 36.465l-7.071 7.07c-4.686 4.686-4.686 12.284 0 16.971L205.947 256 10.454 451.494c-4.686 4.686-4.686 12.284 0 16.971l7.071 7.07c4.686 4.686 12.284 4.686 16.97 0l211.051-211.05c4.686-4.686 4.686-12.284 0-16.971L34.495 36.465c-4.686-4.687-12.284-4.687-16.97 0z"></path>
        </symbol> -->
        <symbol id="icon-chevron-up"   viewbox="0 0 24 24">
          <path d="M0 16.67l2.829 2.83 9.175-9.339 9.167 9.339 2.829-2.83-11.996-12.17z"></path>
        </symbol>
        <symbol id="icon-chevron-down"  viewBox="0 0 100 125">
          	<g stroke="none" stroke-width="1" fill="none" fill-rule="evenodd">
              <g fill="#000000">
                <path d="M69.2928932,60.7071068 C69.6834175,61.0976311 70.3165825,61.0976311 70.7071068,60.7071068 C71.0976311,60.3165825 71.0976311,59.6834175 70.7071068,59.2928932 L50.7071068,39.2928932 C50.3165825,38.9023689 49.6834175,38.9023689 49.2928932,39.2928932 L29.2928932,59.2928932 C28.9023689,59.6834175 28.9023689,60.3165825 29.2928932,60.7071068 C29.6834175,61.0976311 30.3165825,61.0976311 30.7071068,60.7071068 L50.0094444,41.4047691 L69.2928932,60.7071068 Z" transform="translate(50.000000, 50.000000) rotate(180.000000) translate(-50.000000, -50.000000) "/>
              </g>
            </g>
        </symbol>
        <symbol id="icon-leagueCup" xmlns="http://www.w3.org/2000/svg"  viewBox="0 0 24 24">
            <path d="M5.991 9.656c.286.638.585 1.231.882 1.783-4.065-1.348-6.501-5.334-6.873-9.439h4.077c.036.482.08.955.139 1.405h-2.689c.427 2.001 1.549 4.729 4.464 6.251zm4.613 6.344c-.499-3.947-5.604-6.197-5.604-16h14c0 9.803-5.094 12.053-5.592 16h-2.804zm-3.254-14c.205 4.648 1.99 8.333 4.346 11.053-1.887-3.26-2.636-7.432-2.647-11.053h-1.699zm9.65 17.619v4.381h-10v-4.381c1.941 0 3.369-1.433 3.571-2.619h2.866c.193 1.187 1.565 2.619 3.563 2.619zm-1 1.381h-8v2h8v-2zm3.923-19c-.036.482-.08.955-.139 1.405h2.688c-.427 2.001-1.549 4.729-4.464 6.251-.286.638-.585 1.231-.882 1.783 4.066-1.348 6.502-5.334 6.874-9.439h-4.077z" />
        </symbol>
        <symbol id="icon-infographic" xmlns="http://www.w3.org/2000/svg"  viewBox="0 0 24 24">
            <path d="M23.949 13c-.509 6.158-5.66 11-11.949 11-6.627 0-12-5.373-12-12 0-6.29 4.842-11.44 11-11.95v12.95h12.949zm-10.949-2h10.949c-.481-5.828-5.122-10.467-10.949-10.95v10.95z" />
        </symbol>
        <symbol id="icon-gallery" xmlns="http://www.w3.org/2000/svg"  viewBox="0 0 24 24">
            <path d="M5 5h-3v-1h3v1zm8 5c-1.654 0-3 1.346-3 3s1.346 3 3 3 3-1.346 3-3-1.346-3-3-3zm11-4v15h-24v-15h5.93c.669 0 1.293-.334 1.664-.891l1.406-2.109h8l1.406 2.109c.371.557.995.891 1.664.891h3.93zm-19 4c0-.552-.447-1-1-1-.553 0-1 .448-1 1s.447 1 1 1c.553 0 1-.448 1-1zm13 3c0-2.761-2.239-5-5-5s-5 2.239-5 5 2.239 5 5 5 5-2.239 5-5z" />
        </symbol>
        <symbol id="icon-arrow-up"   viewbox="0 0 24 24">
          <path d="M12 0l8 9h-6v15h-4v-15h-6z"></path>
        </symbol>
        <symbol id="icon-arrow-down"   viewbox="0 0 24 24">
          <path d="M12 24l-8-9h6v-15h4v15h6z"></path>
        </symbol>
        <symbol id="icon-arrow-right"   viewbox="0 0 24 24">
          <path d="M24 12l-9-8v6h-15v4h15v6z"></path>
        </symbol>
        <symbol id="icon-arrow-left"   viewbox="0 0 24 24">
          <path d="M0 12l9-8v6h15v4h-15v6z"></path>
        </symbol>
        <symbol id="icon-allbumtag"  viewBox="0 0 25 20.97">
          <path d="M-0.000,20.960 L-0.000,2.204 L25.000,2.204 L25.000,20.960 L-0.000,20.960 ZM2.171,1.094 L22.829,1.094 L22.829,1.646 L2.171,1.646 L2.171,1.094 ZM4.346,-0.009 L20.654,-0.009 L20.654,0.542 L4.346,0.542 L4.346,-0.009 Z"></path>
        </symbol>
        <symbol id="icon-home"   viewbox="0 0 24 24">
          <path d="M21 13v10h-6v-6h-6v6h-6v-10h-3l12-12 12 12h-3zm-1-5.907v-5.093h-3v2.093l3 3z"></path>
        </symbol>
        <symbol id="icon-user"  viewBox="0 0 16 18">
          <path d="M11.223,9.695 C12.502,8.707 13.333,7.152 13.333,5.400 C13.333,2.420 10.941,-0.003 8.000,-0.003 C5.059,-0.003 2.667,2.420 2.667,5.400 C2.667,7.152 3.498,8.707 4.777,9.695 C1.967,10.954 -0.000,13.800 -0.000,17.107 L-0.000,18.007 L16.000,18.007 L16.000,17.107 C16.000,13.800 14.033,10.954 11.223,9.695 ZM4.444,5.400 C4.444,3.413 6.039,1.798 8.000,1.798 C9.961,1.798 11.555,3.413 11.555,5.400 C11.555,7.386 9.961,9.002 8.000,9.002 C6.039,9.002 4.444,7.386 4.444,5.400 ZM1.841,16.206 C2.274,13.155 4.870,10.803 8.000,10.803 C11.130,10.803 13.726,13.155 14.159,16.206 L1.841,16.206 Z"></path>
        </symbol>
        <symbol id="icon-phone"   viewbox="0 0 24 24">
          <path d="M20 22.621l-3.521-6.795c-.008.004-1.974.97-2.064 1.011-2.24 1.086-6.799-7.82-4.609-8.994l2.083-1.026-3.493-6.817-2.106 1.039c-7.202 3.755 4.233 25.982 11.6 22.615.121-.055 2.102-1.029 2.11-1.033z"></path>
        </symbol>
        <symbol id="icon-pin"   viewbox="0 0 24 24">
          <path d="M12 0c-4.198 0-8 3.403-8 7.602 0 4.198 3.469 9.21 8 16.398 4.531-7.188 8-12.2 8-16.398 0-4.199-3.801-7.602-8-7.602zm0 11c-1.657 0-3-1.343-3-3s1.343-3 3-3 3 1.343 3 3-1.343 3-3 3z"></path>
        </symbol>
        <symbol id="icon-envelope"   viewbox="0 0 24 24">
          <path d="M0 3v18h24v-18h-24zm6.623 7.929l-4.623 5.712v-9.458l4.623 3.746zm-4.141-5.929h19.035l-9.517 7.713-9.518-7.713zm5.694 7.188l3.824 3.099 3.83-3.104 5.612 6.817h-18.779l5.513-6.812zm9.208-1.264l4.616-3.741v9.348l-4.616-5.607z"></path>
        </symbol>
        <!-- <symbol id="icon-date"   viewbox="0 0 24 20">
          <path d="M10.000,20.000 C4.489,20.000 -0.000,15.511 -0.000,10.000 C-0.000,4.489 4.489,-0.000 10.000,-0.000 C15.510,-0.000 20.000,4.489 20.000,10.000 C20.000,15.511 15.510,20.000 10.000,20.000 ZM10.000,1.361 C5.234,1.361 1.362,5.234 1.362,10.000 C1.362,14.766 5.234,18.638 10.000,18.638 C14.766,18.638 18.638,14.766 18.638,10.000 C18.638,5.234 14.766,1.361 10.000,1.361 ZM8.766,4.808 L10.128,4.808 L10.128,9.936 L14.149,9.936 L14.149,11.298 L8.766,11.298 L8.766,4.808 Z"></path>
        </symbol> -->
        <symbol id="icon-videoCamera" xmlns="http://www.w3.org/2000/svg" viewBox="0 0 24 24">
            <path d="M16 16c0 1.104-.896 2-2 2h-12c-1.104 0-2-.896-2-2v-8c0-1.104.896-2 2-2h12c1.104 0 2 .896 2 2v8zm8-10l-6 4.223v3.554l6 4.223v-12z" />
        </symbol>
        <symbol id="icon-news" xmlns="http://www.w3.org/2000/svg" viewBox="0 0 24 24">
            <path d="M7 16h13v1h-13v-1zm13-3h-13v1h13v-1zm0-6h-5v1h5v-1zm0 3h-5v1h5v-1zm-17-8v17.199c0 .771-1 .771-1 0v-15.199h-2v15.98c0 1.115.905 2.02 2.02 2.02h19.958c1.117 0 2.022-.904 2.022-2.02v-17.98h-21zm19 17h-17v-15h17v15zm-9-12h-6v4h6v-4z" />
        </symbol>
        <symbol id="icon-search"   viewBox="0 0 18 17.969">
          <path d="M7.461,-0.002 C3.355,-0.002 -0.005,3.344 -0.005,7.444 C-0.005,11.544 3.355,14.898 7.461,14.898 C9.039,14.898 10.502,14.394 11.707,13.555 L15.743,17.577 C16.256,18.097 17.096,18.097 17.610,17.577 C18.124,17.065 18.124,16.234 17.610,15.721 L13.573,11.691 C14.421,10.480 14.920,9.020 14.920,7.444 C14.920,3.344 11.560,-0.002 7.461,-0.002 ZM7.461,2.622 C10.137,2.622 12.282,4.765 12.282,7.444 C12.282,10.123 10.137,12.266 7.461,12.266 C4.778,12.266 2.632,10.123 2.632,7.444 C2.632,4.765 4.778,2.622 7.461,2.622 Z"></path>
        </symbol>
        <symbol id="icon-share"   viewbox="0 0 24 24">
          <path d="M5 7c2.761 0 5 2.239 5 5s-2.239 5-5 5-5-2.239-5-5 2.239-5 5-5zm11.122 12.065c-.073.301-.122.611-.122.935 0 2.209 1.791 4 4 4s4-1.791 4-4-1.791-4-4-4c-1.165 0-2.204.506-2.935 1.301l-5.488-2.927c-.23.636-.549 1.229-.943 1.764l5.488 2.927zm7.878-15.065c0-2.209-1.791-4-4-4s-4 1.791-4 4c0 .324.049.634.122.935l-5.488 2.927c.395.535.713 1.127.943 1.764l5.488-2.927c.731.795 1.77 1.301 2.935 1.301 2.209 0 4-1.791 4-4z"></path>
        </symbol>
        <symbol id="icon-folder"   viewbox="0 0 24 24">
          <path d="M11 5c-1.629 0-2.305-1.058-4-3h-7v20h24v-17h-13z"></path>
        </symbol>
        <symbol id="icon-user"   viewbox="0 0 24 24">
          <path d="M20.822 18.096c-3.439-.794-6.64-1.49-5.09-4.418 4.72-8.912 1.251-13.678-3.732-13.678-5.082 0-8.464 4.949-3.732 13.678 1.597 2.945-1.725 3.641-5.09 4.418-3.073.71-3.188 2.236-3.178 4.904l.004 1h23.99l.004-.969c.012-2.688-.092-4.222-3.176-4.935z"></path>
        </symbol>
        <symbol id="icon-upload"   viewbox="0 0 24 24">
          <path d="M8 10h-5l9-10 9 10h-5v10h-8v-10zm8 12h-8v2h8v-2z"></path>
        </symbol>
        <symbol id="icon-download"   viewbox="0 0 24 24">
          <path d="M16 11h5l-9 10-9-10h5v-11h8v11zm1 11h-10v2h10v-2z"></path>
        </symbol>
        <symbol id="icon-link"   viewbox="0 0 24 24">
          <path d="M6.188 8.719c.439-.439.926-.801 1.444-1.087 2.887-1.591 6.589-.745 8.445 2.069l-2.246 2.245c-.644-1.469-2.243-2.305-3.834-1.949-.599.134-1.168.433-1.633.898l-4.304 4.306c-1.307 1.307-1.307 3.433 0 4.74 1.307 1.307 3.433 1.307 4.74 0l1.327-1.327c1.207.479 2.501.67 3.779.575l-2.929 2.929c-2.511 2.511-6.582 2.511-9.093 0s-2.511-6.582 0-9.093l4.304-4.306zm6.836-6.836-2.929 2.929c1.277-.096 2.572.096 3.779.574l1.326-1.326c1.307-1.307 3.433-1.307 4.74 0 1.307 1.307 1.307 3.433 0 4.74l-4.305 4.305c-1.311 1.311-3.44 1.3-4.74 0-.303-.303-.564-.68-.727-1.051l-2.246 2.245c.236.358.481.667.796.982.812.812 1.846 1.417 3.036 1.704 1.542.371 3.194.166 4.613-.617.518-.286 1.005-.648 1.444-1.087l4.304-4.305c2.512-2.511 2.512-6.582.001-9.093-2.511-2.51-6.581-2.51-9.092 0z"></path>
        </symbol>
        <symbol id="icon-trash"   viewbox="0 0 24 24">
          <path d="M3 6v18h18v-18h-18zm5 14c0 .552-.448 1-1 1s-1-.448-1-1v-10c0-.552.448-1 1-1s1 .448 1 1v10zm5 0c0 .552-.448 1-1 1s-1-.448-1-1v-10c0-.552.448-1 1-1s1 .448 1 1v10zm5 0c0 .552-.448 1-1 1s-1-.448-1-1v-10c0-.552.448-1 1-1s1 .448 1 1v10zm4-18v2h-20v-2h5.711c.9 0 1.631-1.099 1.631-2h5.315c0 .901.73 2 1.631 2h5.712z"></path>
        </symbol>
        <symbol id="icon-calendar"   viewbox="0 0 24 24">
          <path d="M20 20h-4v-4h4v4zm-6-10h-4v4h4v-4zm6 0h-4v4h4v-4zm-12 6h-4v4h4v-4zm6 0h-4v4h4v-4zm-6-6h-4v4h4v-4zm16-8v22h-24v-22h3v1c0 1.103.897 2 2 2s2-.897 2-2v-1h10v1c0 1.103.897 2 2 2s2-.897 2-2v-1h3zm-2 6h-20v14h20v-14zm-2-7c0-.552-.447-1-1-1s-1 .448-1 1v2c0 .552.447 1 1 1s1-.448 1-1v-2zm-14 2c0 .552-.447 1-1 1s-1-.448-1-1v-2c0-.552.447-1 1-1s1 .448 1 1v2z"></path>
        </symbol>
        <symbol id="icon-check"   viewbox="0 0 24 24">
          <path d="M9 21.035l-9-8.638 2.791-2.87 6.156 5.874 12.21-12.436 2.843 2.817z"></path>
        </symbol>
        <symbol id="icon-crop"   viewbox="0 0 24 24">
          <path d="M24 18h-4v-14h-14v-4h-2v4h-4v2h4v14h14v4h2v-4h4v-2zm-18 0v-12h12v12h-12z"></path>
        </symbol>
        <symbol id="icon-minimize"   viewbox="0 0 24 24">
          <path d="M15 2h2v5h7v2h-9v-7zm9 13v2h-7v5h-2v-7h9zm-15 7h-2v-5h-7v-2h9v7zm-9-13v-2h7v-5h2v7h-9z"></path>
        </symbol>
        <symbol id="icon-maxmize"   viewbox="0 0 24 24">
          <path d="M24 9h-2v-5h-7v-2h9v7zm-9 13v-2h7v-5h2v7h-9zm-15-7h2v5h7v2h-9v-7zm9-13v2h-7v5h-2v-7h9z"></path>
        </symbol>
        <symbol id="icon-plus"   viewbox="0 0 24 24">
          <path d="M24 10h-10v-10h-4v10h-10v4h10v10h4v-10h10z"></path>
        </symbol>
        <symbol id="icon-quote"  viewBox="0 0 35 23">
          <path d="M23.562,23.004 C25.808,21.668 27.374,19.345 27.635,16.644 C27.250,16.698 26.861,16.736 26.463,16.736 C21.766,16.736 17.959,12.990 17.959,8.369 C17.959,3.748 21.766,0.002 26.463,0.002 C31.160,0.002 34.569,3.619 34.967,8.223 C35.574,15.250 30.149,21.132 23.562,23.004 ZM5.599,23.004 C7.844,21.668 9.409,19.345 9.671,16.644 C9.287,16.698 8.897,16.736 8.499,16.736 C3.801,16.736 -0.006,12.990 -0.006,8.369 C-0.006,3.748 3.801,0.002 8.499,0.002 C13.195,0.002 16.605,3.619 17.003,8.223 C17.611,15.250 12.185,21.132 5.599,23.004 Z"></path>
        </symbol>
        <symbol id="icon-quote-b"  viewBox="0 0 35 23">
          <path d="M35.005,14.630 C35.005,19.250 31.198,22.996 26.501,22.996 C21.804,22.996 18.395,19.380 17.997,14.775 C17.389,7.749 22.814,1.866 29.401,-0.005 C27.156,1.330 25.590,3.653 25.329,6.354 C25.713,6.301 26.103,6.263 26.501,6.263 C31.198,6.263 35.005,10.008 35.005,14.630 ZM8.537,22.996 C3.840,22.996 0.431,19.380 0.033,14.775 C-0.574,7.749 4.851,1.866 11.437,-0.005 C9.192,1.330 7.626,3.653 7.365,6.354 C7.749,6.301 8.138,6.263 8.537,6.263 C13.234,6.263 17.041,10.008 17.041,14.630 C17.041,19.250 13.234,22.996 8.537,22.996 Z"></path>
        </symbol>
        <symbol id="icon-more" viewBox="0 0 100 60">
          <g transform="translate(0, -15)">
            <path d="M17.289,61.721c-6.459,0-11.721-5.26-11.721-11.719c0-6.463,5.262-11.723,11.721-11.723    c6.461,0,11.721,5.26,11.721,11.723C29.01,56.461,23.75,61.721,17.289,61.721"></path>
            <path d="M49.986,61.721c-6.459,0-11.721-5.26-11.721-11.719c0-6.463,5.262-11.723,11.721-11.723    c6.461,0,11.721,5.26,11.721,11.723C61.707,56.461,56.447,61.721,49.986,61.721"></path>
            <path d="M82.711,61.721c-6.461,0-11.721-5.26-11.721-11.719c0-6.463,5.26-11.723,11.721-11.723s11.721,5.26,11.721,11.723    C94.432,56.461,89.172,61.721,82.711,61.721"></path>
          </g>
        </symbol>
        <!-- <symbol id="icon-flame" viewBox="0 0 15 17.031">
          <path d="M1235.08,268.981a0.267,0.267,0,0,0,.29-0.248v-0.052a5.887,5.887,0,0,1,1.85-4.961,0.424,0.424,0,0,1,.58,0,5.928,5.928,0,0,1,1.85,4.982,0.267,0.267,0,0,0,.24.3h0.01c6.57-1.034,5.26-6.613,4.32-9.1a0.571,0.571,0,0,0-.54-0.38,0.583,0.583,0,0,0-.48.259,6.2,6.2,0,0,1-2.39,2.052c0.68-6.2-3.14-8.758-4.98-9.769a0.573,0.573,0,0,0-.78.221,0.645,0.645,0,0,0-.07.335c0.17,2.585-2.23,5.977-3.63,7.732a5.958,5.958,0,0,0-1.32,4.315C1230.41,268.278,1233.91,268.881,1235.08,268.981Z" transform="translate(-1230 -251.969)"></path>
        </symbol> -->
        <svg id="icon-flame"  xmlns="http://www.w3.org/2000/svg" >
            <path d="M8.625 0c.61 7.189-5.625 9.664-5.625 15.996 0 4.301 3.069 7.972 9 8.004 5.931.032 9-4.414 9-8.956 0-4.141-2.062-8.046-5.952-10.474.924 2.607-.306 4.988-1.501 5.808.07-3.337-1.125-8.289-4.922-10.378zm4.711 13c3.755 3.989 1.449 9-1.567 9-1.835 0-2.779-1.265-2.769-2.577.019-2.433 2.737-2.435 4.336-6.423z" />
        </svg>
        <symbol id="icon-sort" viewbox="0 0 24 24">
          <path d="M10 18h4v-2h-4v2zM3 6v2h18V6H3zm3 7h12v-2H6v2z"></path>
          <path d="M0 0h24v24H0z" fill="none"></path>
        </symbol>
        <symbol id="icon-eye" viewbox="0 0 25 15">
          <path d="M24.696,8.281 C23.344,9.874 18.488,14.999 12.495,14.999 C6.502,14.999 1.646,9.874 0.294,8.281 C-0.106,7.843 -0.106,7.156 0.294,6.687 C1.646,5.124 6.502,-0.001 12.495,-0.001 C18.488,-0.001 23.344,5.124 24.696,6.687 C25.096,7.156 25.096,7.843 24.696,8.281 ZM12.495,2.375 C9.729,2.375 7.455,4.687 7.455,7.499 C7.455,10.312 9.729,12.625 12.495,12.625 C15.261,12.625 17.535,10.312 17.535,7.499 C17.535,4.687 15.261,2.375 12.495,2.375 ZM12.495,11.062 C10.559,11.062 8.991,9.468 8.991,7.499 C8.991,5.531 10.559,3.937 12.495,3.937 C14.431,3.937 15.999,5.531 15.999,7.499 C15.999,9.468 14.431,11.062 12.495,11.062 Z"></path>
        </symbol>
        <!--symbol(id= "icon-info"  width="18" viewBox="0 0 18 18")
        path(d="M9.000,-0.000 C4.000,-0.000 -0.000,4.000 -0.000,9.000 C-0.000,14.000 4.000,18.000 9.000,18.000 C14.000,18.000 18.000,14.000 18.000,9.000 C18.000,4.000 14.000,-0.000 9.000,-0.000 ZM9.000,14.000 C9.000,14.000 8.600,14.300 8.300,14.300 L8.300,14.300 L8.300,14.300 C8.200,14.300 8.200,14.300 8.100,14.300 L8.000,14.300 C7.500,14.200 7.200,13.700 7.400,13.200 L8.100,10.400 L8.400,9.100 C8.700,7.900 7.500,9.300 7.200,8.800 C7.000,8.400 8.100,7.700 9.000,7.100 C9.000,7.100 9.400,6.800 9.700,6.800 L9.700,6.800 L9.700,6.800 C9.800,6.800 9.800,6.800 9.900,6.800 L10.000,6.800 C10.500,6.900 10.800,7.400 10.700,7.900 L10.000,10.700 L9.700,12.000 C9.400,13.200 10.600,11.700 10.900,12.300 C10.900,12.700 9.800,13.500 9.000,14.000 ZM10.700,5.300 C10.500,6.000 9.800,6.400 9.100,6.200 C8.400,6.000 8.000,5.300 8.100,4.600 C8.300,3.900 9.000,3.500 9.700,3.700 C10.500,3.900 10.900,4.600 10.700,5.300 Z")
        
        -->
        <symbol id="icon-info" viewbox="0 0 23 23">
          <metadata>
            <x:xmpmeta xmlns:x="adobe:ns:meta/" x:xmptk="Adobe XMP Core 5.6-c138 79.159824, 2016/09/14-01:09:01        ">
              <rdf:rdf xmlns:rdf="http://www.w3.org/1999/02/22-rdf-syntax-ns#">
                <rdf:description rdf:about=""></rdf:description>
              </rdf:rdf>
            </x:xmpmeta>
          </metadata>
          <defs></defs>
          <path class="cls-1" d="M733.5,338A11.5,11.5,0,1,0,745,349.5h0A11.512,11.512,0,0,0,733.5,338Zm0,21.8a10.3,10.3,0,1,1,10.3-10.3h0A10.308,10.308,0,0,1,733.5,359.8Zm0.589-12.394h-2.2v1.091h0.97v4.072h-0.97v1.091h3.166v-1.091h-0.97V347.4Zm-0.657-1.382a0.72,0.72,0,0,0,.525-0.217,0.711,0.711,0,0,0,.22-0.525,0.7,0.7,0,0,0-.22-0.525,0.723,0.723,0,0,0-.525-0.212,0.7,0.7,0,0,0-.533.22,0.741,0.741,0,0,0,0,1.038A0.709,0.709,0,0,0,733.432,346.021Z" transform="translate(-722 -338)"></path>
        </symbol>
        <symbol id="icon-zoom" viewBox="0 0 90 100" x="0px" y="0px">
          <path d="M75.74,45.8A30,30,0,1,0,64.73,69L79.47,83.71l4.24-4.24L69,64.73A29.79,29.79,0,0,0,75.74,45.8Zm-53.87,0A23.93,23.93,0,1,1,63.35,62.06l-1.29,1.29A23.92,23.92,0,0,1,21.87,45.8Z"></path>
          <polygon points="56.91 42.8 48.8 42.8 48.8 34.7 42.8 34.7 42.8 42.8 34.7 42.8 34.7 48.8 42.8 48.8 42.8 56.91 48.8 56.91 48.8 48.8 56.91 48.8 56.91 42.8"></polygon>
        </symbol>
        <symbol id="icon-star"   viewbox="0 0 24 24">
          <path d="M12 5.173l2.335 4.817 5.305.732-3.861 3.71.942 5.27-4.721-2.524-4.721 2.525.942-5.27-3.861-3.71 5.305-.733 2.335-4.817zm0-4.586-3.668 7.568-8.332 1.151 6.064 5.828-1.48 8.279 7.416-3.967 7.416 3.966-1.48-8.279 6.064-5.827-8.332-1.15-3.668-7.569z"></path>
        </symbol>
        <symbol id="icon-star-half"   viewbox="0 0 24 24">
          <path d="M12 5.173l2.335 4.817 5.305.732-3.861 3.71.942 5.27-4.721-2.524v-12.005zm0-4.586-3.668 7.568-8.332 1.151 6.064 5.828-1.48 8.279 7.416-3.967 7.416 3.966-1.48-8.279 6.064-5.827-8.332-1.15-3.668-7.569z"></path>
        </symbol>
        <symbol id="icon-star-filled" lass="u-icon undefined">
          <path d="M12 .587l3.668 7.568 8.332 1.151-6.064 5.828 1.48 8.279-7.416-3.967-7.417 3.967 1.481-8.279-6.064-5.828 8.332-1.151z"></path>
        </symbol>
        <symbol id="icon-fav" lass="u-icon undefined"  viewBox="0 0 20 34.97">
          <path d="M10.000,24.963 L20.000,34.965 L20.000,-0.009 L-0.000,-0.009 L-0.000,34.965 L10.000,24.963 M12.467,10.594 L13.755,15.005 L9.978,12.376 L6.178,15.005 L7.511,10.572 L3.844,7.788 L8.444,7.676 L10.000,3.332 L11.511,7.654 L16.133,7.854 L12.467,10.594 Z"></path>
        </symbol>
        <symbol id="icon-album" lass="u-icon undefined"  viewBox="0 0 16 12.5">
          <path d="M12,9V1H4v8H12z M14,9V1h-1v8H14z M16,10V0h-1v10H16z M2,9h1V1H2V9z M0,10h1V0H0  V10z"></path>
        </symbol>
        <!-- <symbol id="icon-facebook" viewbox="0 0 100 100">
          <path d="M9 8h-3v4h3v12h5v-12h3.642l.358-4h-4v-1.667c0-.955.192-1.333 1.115-1.333h2.885v-5h-3.808c-3.596 0-5.192 1.583-5.192 4.615v3.385z"/>
        </symbol> -->
        <symbol version="1.1" id="icon-facebook" xmlns="http://www.w3.org/2000/svg" xmlns:xlink="http://www.w3.org/1999/xlink" x="0px" y="0px" viewBox="0 0 155.139 155.139" style="enable-background:new 0 0 155.139 155.139;" xml:space="preserve">
          <g>
            <path id="f_1_"  d="M89.584,155.139V84.378h23.742l3.562-27.585H89.584V39.184
              c0-7.984,2.208-13.425,13.67-13.425l14.595-0.006V1.08C115.325,0.752,106.661,0,96.577,0C75.52,0,61.104,12.853,61.104,36.452
              v20.341H37.29v27.585h23.814v70.761H89.584z"/>
          </g>
        </symbol>
        <symbol id="icon-stad-vert" xmlns="http://www.w3.org/2000/svg"  version="1.1"  viewBox="0 0 512 640" enable-background="new 0 0 512 512" xml:space="preserve">
          <path d="M443.9,2H68.1C60.3,2,54,8.3,54,16.1v479.8c0,7.8,6.3,14.1,14.1,14.1h375.8c7.8,0,14.1-6.3,14.1-14.1V16.1  C458,8.3,451.7,2,443.9,2z M366.5,30.2c-7,54.8-53.8,97.4-110.5,97.4c-56.7,0-103.6-42.6-110.5-97.4H366.5z M117,30.2  c7.1,70.5,66.7,125.6,139,125.6c72.3,0,131.9-55.2,139-125.6h34.8v211.7H325.9c-6.6-32.6-35.4-57.2-69.9-57.2  c-34.5,0-63.3,24.6-69.9,57.2H82.2V30.2H117z M215.4,241.9c5.9-16.8,21.8-28.9,40.6-28.9c18.8,0,34.8,12.1,40.6,28.9H215.4z   M296.6,270.1c-5.9,16.8-21.8,28.9-40.6,28.9s-34.8-12.1-40.6-28.9H296.6z M145.5,481.8c7-54.8,53.8-97.4,110.5-97.4  s103.6,42.6,110.5,97.4H145.5z M395,481.8c-7.1-70.5-66.7-125.6-139-125.6s-131.9,55.2-139,125.6H82.2V270.1h103.9  c6.6,32.6,35.4,57.2,69.9,57.2c34.5,0,63.3-24.6,69.9-57.2h103.9v211.7H395z"/>
        </symbol>
        <symbol id="icon-twitter"    viewBox="0 0 24 24">
          <path d="M24 4.557c-.883.392-1.832.656-2.828.775 1.017-.609 1.798-1.574 2.165-2.724-.951.564-2.005.974-3.127 1.195-.897-.957-2.178-1.555-3.594-1.555-3.179 0-5.515 2.966-4.797 6.045-4.091-.205-7.719-2.165-10.148-5.144-1.29 2.213-.669 5.108 1.523 6.574-.806-.026-1.566-.247-2.229-.616-.054 2.281 1.581 4.415 3.949 4.89-.693.188-1.452.232-2.224.084.626 1.956 2.444 3.379 4.6 3.419-2.07 1.623-4.678 2.348-7.29 2.04 2.179 1.397 4.768 2.212 7.548 2.212 9.142 0 14.307-7.721 13.995-14.646.962-.695 1.797-1.562 2.457-2.549z"/>
        </symbol>
        <symbol id="icon-Whatsapp"    viewBox="0 0 24 24">
          <path d="M.057 24l1.687-6.163c-1.041-1.804-1.588-3.849-1.587-5.946.003-6.556 5.338-11.891 11.893-11.891 3.181.001 6.167 1.24 8.413 3.488 2.245 2.248 3.481 5.236 3.48 8.414-.003 6.557-5.338 11.892-11.893 11.892-1.99-.001-3.951-.5-5.688-1.448l-6.305 1.654zm6.597-3.807c1.676.995 3.276 1.591 5.392 1.592 5.448 0 9.886-4.434 9.889-9.885.002-5.462-4.415-9.89-9.881-9.892-5.452 0-9.887 4.434-9.889 9.884-.001 2.225.651 3.891 1.746 5.634l-.999 3.648 3.742-.981zm11.387-5.464c-.074-.124-.272-.198-.57-.347-.297-.149-1.758-.868-2.031-.967-.272-.099-.47-.149-.669.149-.198.297-.768.967-.941 1.165-.173.198-.347.223-.644.074-.297-.149-1.255-.462-2.39-1.475-.883-.788-1.48-1.761-1.653-2.059-.173-.297-.018-.458.13-.606.134-.133.297-.347.446-.521.151-.172.2-.296.3-.495.099-.198.05-.372-.025-.521-.075-.148-.669-1.611-.916-2.206-.242-.579-.487-.501-.669-.51l-.57-.01c-.198 0-.52.074-.792.372s-1.04 1.016-1.04 2.479 1.065 2.876 1.213 3.074c.149.198 2.095 3.2 5.076 4.487.709.306 1.263.489 1.694.626.712.226 1.36.194 1.872.118.571-.085 1.758-.719 2.006-1.413.248-.695.248-1.29.173-1.414z"/>
        </symbol>
        <!-- <symbol id="icon-whatsapp" xmlns="http://www.w3.org/2000/svg" viewBox="0 0 24 24">
            <path d="M12.031 6.172c-3.181 0-5.767 2.586-5.768 5.766-.001 1.298.38 2.27 1.019 3.287l-.582 2.128 2.182-.573c.978.58 1.911.928 3.145.929 3.178 0 5.767-2.587 5.768-5.766.001-3.187-2.575-5.77-5.764-5.771zm3.392 8.244c-.144.405-.837.774-1.17.824-.299.045-.677.063-1.092-.069-.252-.08-.575-.187-.988-.365-1.739-.751-2.874-2.502-2.961-2.617-.087-.116-.708-.94-.708-1.793s.448-1.273.607-1.446c.159-.173.346-.217.462-.217l.332.006c.106.005.249-.04.39.298.144.347.491 1.2.534 1.287.043.087.072.188.014.304-.058.116-.087.188-.173.289l-.26.304c-.087.086-.177.18-.076.354.101.174.449.741.964 1.201.662.591 1.221.774 1.394.86s.274.072.376-.043c.101-.116.433-.506.549-.68.116-.173.231-.145.39-.087s1.011.477 1.184.564.289.13.332.202c.045.072.045.419-.1.824zm-3.423-14.416c-6.627 0-12 5.373-12 12s5.373 12 12 12 12-5.373 12-12-5.373-12-12-12zm.029 18.88c-1.161 0-2.305-.292-3.318-.844l-3.677.964.984-3.595c-.607-1.052-.927-2.246-.926-3.468.001-3.825 3.113-6.937 6.937-6.937 1.856.001 3.598.723 4.907 2.034 1.31 1.311 2.031 3.054 2.03 4.908-.001 3.825-3.113 6.938-6.937 6.938z" />
        </symbol> -->
        <symbol id="icon-googlePlus"   viewbox="0 0 24 24">
          <path d="M7 11v2.4h3.97c-.16 1.029-1.2 3.02-3.97 3.02-2.39 0-4.34-1.979-4.34-4.42 0-2.44 1.95-4.42 4.34-4.42 1.36 0 2.27.58 2.79 1.08l1.9-1.83c-1.22-1.14-2.8-1.83-4.69-1.83-3.87 0-7 3.13-7 7s3.13 7 7 7c4.04 0 6.721-2.84 6.721-6.84 0-.46-.051-.81-.111-1.16h-6.61zm0 0 17 2h-3v3h-2v-3h-3v-2h3v-3h2v3h3v2z" fill-rule="evenodd" clip-rule="evenodd"></path>
        </symbol>
        <symbol id="icon-youtube"   viewbox="0 0 24 24">
          <path d="M19.615 3.184c-3.604-.246-11.631-.245-15.23 0-3.897.266-4.356 2.62-4.385 8.816.029 6.185.484 8.549 4.385 8.816 3.6.245 11.626.246 15.23 0 3.897-.266 4.356-2.62 4.385-8.816-.029-6.185-.484-8.549-4.385-8.816zm-10.615 12.816v-8l8 3.993-8 4.007z"></path>
        </symbol>
        <symbol id="icon-instagram"  viewBox="0 0 19.938 19.94">
          <path d="M414.994,2314.8a29.394,29.394,0,0,1,3.981.11,5.03,5.03,0,0,1,1.88.33,3.854,3.854,0,0,1,1.88,1.88,5.121,5.121,0,0,1,.333,1.88c0,0.99.111,1.33,0.111,3.98a30.717,30.717,0,0,1-.111,3.98,5.12,5.12,0,0,1-.332,1.88,3.852,3.852,0,0,1-1.879,1.88,5.034,5.034,0,0,1-1.88.33c-1,0-1.327.11-3.982,0.11a29.394,29.394,0,0,1-3.981-.11,5.03,5.03,0,0,1-1.88-.33,3.854,3.854,0,0,1-1.88-1.88,5.122,5.122,0,0,1-.334-1.88c0-.99-0.111-1.32-0.111-3.98a30.365,30.365,0,0,1,.111-3.98,5.14,5.14,0,0,1,.331-1.88,4.1,4.1,0,0,1,.775-1.11,1.889,1.889,0,0,1,1.106-.77,5.034,5.034,0,0,1,1.88-.33,29.413,29.413,0,0,1,3.982-.11m0-1.77a32.9,32.9,0,0,0-4.093.11,6.967,6.967,0,0,0-2.433.44,4.323,4.323,0,0,0-1.769,1.11,4.274,4.274,0,0,0-1.106,1.77,5.015,5.015,0,0,0-.442,2.43,75.407,75.407,0,0,0,0,8.18,6.885,6.885,0,0,0,.442,2.44,4.613,4.613,0,0,0,2.875,2.87,6.538,6.538,0,0,0,2.433.44,76.185,76.185,0,0,0,8.185,0,6.535,6.535,0,0,0,2.433-.44,4.622,4.622,0,0,0,2.876-2.87,6.885,6.885,0,0,0,.442-2.44c0-1.1.111-1.43,0.111-4.09a32.868,32.868,0,0,0-.111-4.09,6.791,6.791,0,0,0-.442-2.43,4.664,4.664,0,0,0-2.876-2.88,6.963,6.963,0,0,0-2.433-.44,32.874,32.874,0,0,0-4.092-.11m0,4.86a5.011,5.011,0,0,0-5.088,4.92c0,0.06,0,.12,0,0.17a5.088,5.088,0,1,0,5.088-5.09h0m0,8.41a3.261,3.261,0,0,1-3.318-3.2v-0.12a3.266,3.266,0,0,1,3.2-3.32h0.118a3.26,3.26,0,0,1,3.317,3.2q0,0.06,0,.12a3.259,3.259,0,0,1-3.2,3.32h-0.117m5.308-9.84a1.215,1.215,0,1,0,1.217,1.21h0a1.217,1.217,0,0,0-1.217-1.21" transform="translate(-405.031 -2313)"></path>
        </symbol>
        <symbol id="icon-rss" viewbox="0 0 24 24">
          <path d="M6.503 20.752c0 1.794-1.456 3.248-3.251 3.248-1.796 0-3.252-1.454-3.252-3.248 0-1.794 1.456-3.248 3.252-3.248 1.795.001 3.251 1.454 3.251 3.248zm-6.503-12.572v4.811c6.05.062 10.96 4.966 11.022 11.009h4.817c-.062-8.71-7.118-15.758-15.839-15.82zm0-3.368c10.58.046 19.152 8.594 19.183 19.188h4.817c-.03-13.231-10.755-23.954-24-24v4.812z"></path>
        </symbol>
        <symbol id="icon-goal" viewbox="0 0 20 20">
          <metadata>
            <x:xmpmeta xmlns:x="adobe:ns:meta/" x:xmptk="Adobe XMP Core 5.6-c138 79.159824, 2016/09/14-01:09:01        ">
              <rdf:rdf xmlns:rdf="http://www.w3.org/1999/02/22-rdf-syntax-ns#">
                <rdf:description rdf:about=""></rdf:description>
              </rdf:rdf>
            </x:xmpmeta>
          </metadata>
          <defs></defs>
          <path class="cls-1" d="M1490.97,869.323a10.028,10.028,0,0,0-4.96-8c-0.01,0-.01-0.006-0.02-0.006a9.484,9.484,0,0,0-3.05-1.126,10.227,10.227,0,0,0-1.95-.188,9.882,9.882,0,0,0-8.65,4.987,9.949,9.949,0,0,0-1.34,5,10.76,10.76,0,0,0,.19,1.972A9.987,9.987,0,0,0,1481,880a9.939,9.939,0,0,0,4.99-1.339,0.026,0.026,0,0,0,.02-0.006,10.043,10.043,0,0,0,4.99-8.667C1491,869.768,1490.99,869.542,1490.97,869.323Zm-13.75-7.239a8.448,8.448,0,0,1,.85-0.351,0.043,0.043,0,0,0,.02-0.006,8.987,8.987,0,0,1,5.8-.006,0.174,0.174,0,0,0,.03.012,7.614,7.614,0,0,1,.83.344,0.53,0.53,0,0,0,.07.026l-1.63,2.828h-4.39l-1.63-2.822A0.107,0.107,0,0,0,1477.22,862.084Zm-1.13,15.154a0.075,0.075,0,0,1-.04-0.031,7.835,7.835,0,0,1-.69-0.525l-0.09-.076a7.2,7.2,0,0,1-.62-0.6c-0.04-.044-0.08-0.081-0.11-0.119a7.159,7.159,0,0,1-.55-0.663c-0.03-.038-0.05-0.075-0.08-0.113a8.416,8.416,0,0,1-.89-1.545c-0.02-.044-0.04-0.088-0.06-0.126a7.826,7.826,0,0,1-.29-0.8,1,1,0,0,1-.05-0.162,7.794,7.794,0,0,1-.21-0.839c-0.01-.037-0.01-0.075-0.02-0.112-0.05-.288-0.09-0.576-0.12-0.87v-0.044h3.25l1.04,1.8,1.16,2Zm2.71-3.447-1.16-2-1.03-1.8,1.66-2.89,0.53-.914h4.39l2.19,3.8-2.19,3.805h-4.39Zm10.92-3.135a8.406,8.406,0,0,1-.11.87l-0.02.112c-0.06.288-.13,0.563-0.21,0.839-0.02.056-.03,0.106-0.05,0.162-0.09.27-.18,0.539-0.29,0.795-0.02.044-.05,0.088-0.07,0.132a6.346,6.346,0,0,1-.4.794v0.007c-0.15.256-.31,0.5-0.48,0.744a0.784,0.784,0,0,0-.08.113,7.088,7.088,0,0,1-.55.657c-0.04.043-.07,0.081-0.11,0.125q-0.3.309-.63,0.6a0.589,0.589,0,0,1-.08.076,7.74,7.74,0,0,1-.7.531,0.133,0.133,0,0,0-.03.025l-1.63-2.822,2.19-3.8h3.25v0.044Z" transform="translate(-1471 -860)"></path>
        </symbol>
        <symbol id="icon-goalKeeperCatchBall" version="1.1" xmlns="http://www.w3.org/2000/svg" xmlns:xlink="http://www.w3.org/1999/xlink" x="0px" y="0px"  viewbox="0 0 481.813 481.812" style="enable-background:new 0 0 481.813 481.812;" xml:space="preserve">
          <g>
            <g>
              <path d="M115.604,164.441c0,4.194,1.09,8.095,2.865,11.596l46.45-22.247c-4.067-8.943-13.022-15.192-23.479-15.192        C127.169,138.605,115.604,150.179,115.604,164.441z"></path>
              <path d="M25.844,247.153c13.048,0,23.722-9.705,25.475-22.27c-0.298-2.216-0.314-4.42,0.054-6.57        c-1.507-12.838-12.295-22.831-25.538-22.831C11.565,195.483,0,207.055,0,221.319C0.008,235.582,11.579,247.153,25.844,247.153z"></path>
              <path d="M439.352,274.055c-40.311-20.153-106.277-53.343-113.33-57.455c-2.216-1.46-4.665-2.316-7.146-2.703l-111.769-53.622        l-4.442-2.136l-7.396-3.55c-1.302-0.874-2.695-1.571-4.194-2.008l-0.32-0.156l-0.024,0.076c-1.281-0.345-2.607-0.549-3.948-0.549        c-2.224,0-4.474,0.487-6.608,1.507l-13.355,6.398l-44.803,21.454l-56.01,26.826c-7.632,3.661-10.86,12.806-7.199,20.434        c2.629,5.498,8.115,8.706,13.829,8.706c2.225,0,4.475-0.487,6.612-1.507l99.084-47.454l-1.441,4.169l-1.445,4.174l-4.734,13.644        c-0.096,0.064-0.203,0.094-0.299,0.148c-19.109,12.351-40.886,26.075-47.52,29.761c-6.318,0.733-23.057,2.909-70.032,9.394        c-8.384,1.15-14.24,8.88-13.086,17.268c1.06,7.667,7.624,13.232,15.16,13.232c0.697,0,1.395-0.048,2.112-0.156        c24.736-3.41,65.057-8.9,70.629-9.474c4.693-0.048,8.228-1.334,53.141-30.28l79.546,44.959l-4.568,10.436        c-2.393,5.458-1.932,11.737,1.226,16.787c3.158,5.053,8.604,8.219,14.551,8.459l93.333,3.787c0.245,0.009,0.497,0.013,0.75,0.013        c9.613,0,17.601-7.595,18.001-17.292c0.396-9.947-7.329-18.338-17.288-18.747l-66.952-2.713l15.148-34.576        c11.718,6.195,39.208,20.253,105.735,53.519l30.284,32.621c3.555,3.819,8.372,5.767,13.209,5.767        c4.392,0,8.792-1.595,12.259-4.825c7.297-6.776,7.718-18.182,0.941-25.475l-32.504-35.01        C443.023,276.331,441.284,275.021,439.352,274.055z"></path>
            </g>
          </g>
        </symbol>
        <symbol class="icon-redCard" id="icon-redCard" viewbox="0 0 20 27.969">
          <metadata>
            <x:xmpmeta xmlns:x="adobe:ns:meta/" x:xmptk="Adobe XMP Core 5.6-c138 79.159824, 2016/09/14-01:09:01        ">
              <rdf:rdf xmlns:rdf="http://www.w3.org/1999/02/22-rdf-syntax-ns#">
                <rdf:description rdf:about=""></rdf:description>
              </rdf:rdf>
            </x:xmpmeta>
          </metadata>
          <defs></defs>
          <path class="cls-1" d="M1490.28,718.892a3.38,3.38,0,0,0-1.29-1.544l-2.42-1.414v1.234l1.89,1.105a2.416,2.416,0,0,1,.6.579,1.666,1.666,0,0,1,.23.416c0.02,0.045,1.66,4.5,1.66,7.139a2.16,2.16,0,0,1-.06.417,9.732,9.732,0,0,1-1.85,3.249c-0.41.528-.8,0.976-1.06,1.253a1.839,1.839,0,0,1-1.1.474h-3.99a0.768,0.768,0,0,1-.65-0.474s-2.23-6.693-2.23-6.694l-1.89-5.693-0.03-.092a1.39,1.39,0,0,1,.56-1.519,1.362,1.362,0,0,1,1.9.394l4.34,6.676a0.524,0.524,0,0,0,.73.152,0.534,0.534,0,0,0,.15-0.741l-0.11-.169-1.6-2.456h1.38a0.619,0.619,0,0,0,.61-0.617V705.514a0.619,0.619,0,0,0-.61-0.617h-10.06a0.612,0.612,0,0,0-.61.617v15.052a0.611,0.611,0,0,0,.61.617h2.37l0.18,0.534,0.79,2.369-1.78,1.8a1.1,1.1,0,0,1-1.57,0,1.148,1.148,0,0,1,0-1.59l0.95-.963,1.6-1.622h-1.49l-0.65.662-0.84.845a1.113,1.113,0,0,1-1.56,0,1.123,1.123,0,0,1,0-1.59l0.88-.9a0.974,0.974,0,0,1-.02-0.172v-1.321l-1.61,1.634a2.223,2.223,0,0,0,0,3.1,2.128,2.128,0,0,0,1.42.637,1.925,1.925,0,0,0-.06.48,2.194,2.194,0,0,0,.64,1.551,2.134,2.134,0,0,0,1.53.642h0a0.913,0.913,0,0,1,1.41,1.059,2.136,2.136,0,0,0,2.67.312l1,3.006a1.833,1.833,0,0,0,1.65,1.2h3.99a2.829,2.829,0,0,0,1.86-.805c0.33-.354,3.26-3.523,3.26-5.656C1492,723.577,1490.35,719.083,1490.28,718.892Zm-10.4,8.7a1.114,1.114,0,0,1-1.56,0,1.121,1.121,0,0,1,0-1.589l0.78-.788,0.78,2.377h0Z" transform="translate(-1472 -704.906)"></path>
        </symbol>
        <symbol id="icon-change" xmlns="http://www.w3.org/2000/svg" viewbox="0 0 24 24">
          <path d="M 6.25 2 L 4.75 2.53125 C 3.925 2.75625 3.2625 3.2625 2.8125 3.9375 L 1 8 L 3.25 9.125 L 4 7.6875 L 4 15.5 C 4 16.325 4.675 17 5.5 17 L 9 17 L 13.5 17 C 13.817 16.581 14 16.065 14 15.5 L 14 15 L 13 15 L 13 7.6875 L 13.75 9.125 L 16 8 L 14.1875 3.9375 C 13.7375 3.2625 13.075 2.75625 12.25 2.53125 L 10.75 2 C 10.75 2 10.225 3.5 8.5 3.5 C 6.775 3.5 6.25 2 6.25 2 z M 14 15 L 15 15 L 16 15 L 16 13 L 19 16 L 16 19 L 16 17 L 15 17 L 13.5 17 C 13.043 17.604 12.314 18 11.5 18 L 11 18 L 11 19 L 9 19 L 9 17 L 6 20 L 9 23 L 9 21 L 11.09375 21 C 11.30175 21.58 11.851 22 12.5 22 L 18.5 22 C 19.325 22 20 21.325 20 20.5 L 20 12.6875 L 20.75 14.125 L 23 13 L 21.1875 8.9375 C 20.7375 8.2625 20.075 7.75625 19.25 7.53125 L 17.75 7 C 17.75 7 17.5575 7.5115 17.0625 7.9375 L 17.3125 8.46875 L 14 10.125 L 14 15 z"></path>
        </symbol>
        <symbol id="icon-corner" xmlns="http://www.w3.org/2000/svg" viewbox="0 0 24 24">
          <path d="M 13 2 L 13 6 C 14.75 6 14.75 7 16.5 7 C 18.25 7 18.25 6 20 6 L 20 2 C 18.25 2 18.25 3 16.5 3 C 14.75 3 14.75 2 13 2 z M 13 7 L 13 12 L 2 12 L 2 14 L 6.1875 14 C 6.5794376 15.233533 7.6227332 16.534403 9.1875 17.59375 C 10.7435 18.64775 12.939 19.5 15.25 19.5 C 16.094702 19.5 16.964176 19.393488 17.8125 19.125 L 20.5 22 L 22 20.6875 L 15 13.09375 L 15 7.71875 C 14.711 7.60575 14.462 7.496 14.25 7.375 C 13.862 7.153 13.609 7 13 7 z M 8.34375 14 L 13 14 L 16.21875 17.4375 C 14.029121 17.757404 11.815053 16.954006 10.3125 15.9375 C 9.3499327 15.285692 8.7028258 14.593455 8.34375 14 z"></path>
        </symbol>
        <symbol id="icon-penalty" version="1.1" xmlns="http://www.w3.org/2000/svg" xmlns:xlink="http://www.w3.org/1999/xlink" viewbox="0 0 43.926 43.926" xml:space="preserve">
          <g>
            <g>
              <path style="fill:#010002;" d="M43.016,0v29.502h-2.668V2.669H3.579v26.833H0.911V0H43.016z M27.166,25.85        c0,3.951-3.2,7.152-7.15,7.152c-3.952,0-7.152-3.201-7.152-7.152c0-3.948,3.2-7.151,7.152-7.151        C23.965,18.698,27.166,21.902,27.166,25.85z M20.894,27.59c0.164,0,0.294,0,0.367,0c0.026,0,0.045,0,0.055,0      c0.042-0.129,0.709-2.178,0.812-2.492c0.001-0.004,0.003-0.008,0.004-0.012c0.003-0.01,0.005-0.021,0.008-0.025      c-0.102-0.069-1.488-1.053-1.973-1.395c-0.085-0.059-0.144-0.1-0.159-0.111c-0.018,0.012-0.075,0.053-0.159,0.111      c-0.484,0.342-1.872,1.324-1.973,1.395c0.002,0.004,0.006,0.015,0.009,0.025c0.003,0.004,0.003,0.008,0.005,0.012      c0.103,0.314,0.77,2.363,0.811,2.492C18.809,27.59,20.178,27.59,20.894,27.59z M18.575,27.805l-0.965,1.422l0.163,0.26      l1.193-1.682H18.575z M20.007,23.293l0.159,0.113v-1.949l-0.159,0.062l-0.159-0.062v1.949L20.007,23.293z M21.019,27.805      l1.193,1.697l0.195-0.275l0.011-0.002l-1.009-1.42L21.019,27.805L21.019,27.805z M24.218,24.764l-0.205-0.252l-1.63,0.492      l-0.122,0.375L24.218,24.764z M22.292,20.63l-0.429,0.168c0.909,0.345,1.698,0.935,2.292,1.686l0.031-0.459      C23.662,21.437,23.018,20.959,22.292,20.63z M17.9,20.47c0.015,0.007,0.042,0.017,0.077,0.031      c0.099,0.038,0.264,0.103,0.462,0.179c0.471,0.183,1.112,0.433,1.41,0.548c0.09,0.036,0.148,0.058,0.159,0.063      c0.013-0.004,0.07-0.027,0.159-0.063c0.292-0.111,0.917-0.356,1.386-0.538c0.188-0.074,0.352-0.137,0.456-0.178      c0.047-0.019,0.084-0.033,0.104-0.04c-0.059-0.104-0.311-0.562-0.521-0.94c-0.08-0.147-0.154-0.277-0.208-0.377      c-0.454-0.095-0.926-0.148-1.407-0.148c-0.483,0-0.954,0.052-1.407,0.149c-0.051,0.099-0.117,0.228-0.189,0.371      C18.187,19.909,17.952,20.367,17.9,20.47z M15.826,21.963l0.032,0.451c0.593-0.728,1.373-1.292,2.266-1.626l-0.431-0.169      C16.982,20.937,16.346,21.394,15.826,21.963z M15.818,24.743l1.938,0.637l-0.122-0.375l-1.637-0.508L15.818,24.743z      M14.376,26.213c0.036-0.041,0.145-0.18,0.287-0.357c0.283-0.356,0.702-0.883,0.94-1.184c0.103-0.129,0.174-0.215,0.183-0.229      c0-0.006-0.001-0.023-0.003-0.049c-0.015-0.224-0.079-1.14-0.121-1.726c-0.016-0.238-0.028-0.421-0.033-0.481      c0-0.001,0-0.001,0-0.003c-0.117,0.02-0.675,0.116-1.126,0.194c-0.157,0.027-0.304,0.051-0.412,0.07      c-0.455,0.804-0.751,1.708-0.844,2.671c0.078,0.075,0.184,0.176,0.299,0.289c0.312,0.301,0.701,0.676,0.813,0.784      C14.364,26.202,14.372,26.209,14.376,26.213z M15.092,28.568l0.425,0.091c-0.474-0.726-0.772-1.572-0.84-2.482l-0.281,0.354      l-0.002-0.005C14.493,27.275,14.726,27.941,15.092,28.568z M18.683,31.323c-0.01-0.017-0.028-0.041-0.05-0.078      c-0.056-0.088-0.147-0.231-0.256-0.402c-0.242-0.387-0.57-0.905-0.76-1.2c-0.081-0.129-0.136-0.218-0.144-0.23      c-0.005-0.002-0.017-0.002-0.035-0.01c-0.195-0.053-1.161-0.314-1.735-0.469c-0.207-0.056-0.361-0.099-0.414-0.113      c-0.003,0.014-0.006,0.037-0.01,0.063c-0.03,0.197-0.11,0.697-0.175,1.098c-0.026,0.158-0.05,0.302-0.066,0.404      c0.646,0.689,1.432,1.246,2.312,1.619c0.106-0.051,0.238-0.121,0.379-0.193C18.123,31.607,18.581,31.375,18.683,31.323z      M21.098,31.295l0.244-0.387c-0.435,0.115-0.893,0.178-1.364,0.178c-0.446,0-0.879-0.053-1.292-0.156l0.239,0.377      c0.342,0.066,0.692,0.103,1.053,0.103C20.361,31.409,20.736,31.37,21.098,31.295z M24.998,30.299      c-0.021-0.113-0.046-0.252-0.073-0.402c-0.078-0.444-0.176-0.965-0.195-1.078c-0.002,0-0.01,0.002-0.012,0.005      c-0.068,0.018-0.25,0.065-0.479,0.127c-0.634,0.174-1.642,0.446-1.695,0.461c-0.027,0.045-0.538,0.85-0.888,1.405      c-0.109,0.17-0.201,0.316-0.26,0.412c-0.027,0.043-0.049,0.074-0.061,0.095c0.1,0.051,0.544,0.271,0.939,0.469      c0.139,0.067,0.271,0.135,0.381,0.188C23.551,31.592,24.35,31.016,24.998,30.299z M25.571,26.467l-0.286-0.359      c-0.06,0.943-0.367,1.826-0.856,2.572l0.447-0.121C25.236,27.926,25.479,27.221,25.571,26.467z M25.447,22.367      c-0.437-0.075-0.946-0.163-1.058-0.182c-0.002,0.014-0.006,0.041-0.006,0.074c-0.008,0.1-0.02,0.277-0.033,0.486      c-0.041,0.586-0.103,1.437-0.116,1.647c0,0.025-0.003,0.043-0.003,0.049c0.011,0.015,0.08,0.101,0.181,0.229      c0.224,0.279,0.604,0.756,0.886,1.109c0.131,0.165,0.242,0.307,0.303,0.381c0.019,0.022,0.033,0.039,0.041,0.051      c0.082-0.078,0.457-0.438,0.773-0.746c0.112-0.108,0.215-0.209,0.301-0.289c-0.089-0.987-0.388-1.916-0.854-2.738      C25.745,22.42,25.6,22.396,25.447,22.367z M16.592,32.264l-8.007,6.229l0.546,0.702l8.007-6.229L16.592,32.264z M14.447,43.325      l0.818,0.352l4.014-9.312l-0.818-0.354L14.447,43.325z M20.166,33.877l1.356,10.049l0.881-0.117l-1.356-10.051L20.166,33.877z"></path>
            </g>
          </g>
        </symbol>
        <symbol id="icon-offside" xmlns="http://www.w3.org/2000/svg" xmlns:xlink="http://www.w3.org/1999/xlink" version="1.1" viewbox="0 0 100 125" xml:space="preserve">
          <g>
            <path d="M34.413,92.864c0.492,2.264-1.084,4.469-3.523,4.926l0,0c-2.439,0.457-4.817-1.004-5.311-3.268L6.505,7.135   C6.012,4.873,7.59,2.667,10.03,2.209l0,0c2.438-0.458,4.816,1.005,5.311,3.267L34.413,92.864z"></path>
            <g>
              <path d="M78.816,9.412c-16.799,1.535-19.801-6.185-35.829-5.96C33.825,3.581,24.723,5.83,20.184,7.5l11.382,52.152    c2.77-0.918,6.838-1.7,12.323-1.323c7.278,0.5,10.003,5.389,26.284,4.25c11.708-0.818,18.17-7.338,18.17-7.338l5.242-51.287    C93.585,3.954,90.32,8.36,78.816,9.412z"></path>
            </g>
          </g>
        </symbol>
        <symbol id="icon-injury" version="1.1" xmlns="http://www.w3.org/2000/svg" xmlns:xlink="http://www.w3.org/1999/xlink" x="0px" y="0px" viewbox="0 0 512 512" xml:space="preserve">
          <g>
            <g>
              <g>
                <path d="M381.208,214.697h-50.977c-6.611,0-11.97-5.359-11.97-11.97v-50.976c0-6.611-5.359-11.97-11.97-11.97h-58.663          c-6.611,0-11.97,5.359-11.97,11.97v50.977c0,6.611-5.359,11.97-11.97,11.97h-50.977c-6.611,0-11.97,5.359-11.97,11.97v58.663          c0,6.611,5.359,11.97,11.97,11.97h50.977c6.611,0,11.97,5.359,11.97,11.97v50.977c0,6.611,5.359,11.97,11.97,11.97h58.663          c6.609-0.002,11.97-5.361,11.97-11.972v-50.977c0-6.611,5.359-11.97,11.97-11.97h50.977c6.611,0,11.97-5.359,11.97-11.97v-58.663          C393.178,220.056,387.819,214.697,381.208,214.697z"></path>
                <path d="M465.094,20.959H88.823c-25.865,0-46.906,21.041-46.906,46.906v29.527H12.792C5.728,97.392,0,103.119,0,110.184v93.078          c0,7.065,5.728,12.792,12.792,12.792h29.124v79.776H12.792C5.728,295.831,0,301.558,0,308.623v93.078          c0,7.065,5.728,12.793,12.792,12.793h29.124v29.641c0,25.865,21.041,46.906,46.906,46.906h376.272          C490.959,491.041,512,470,512,444.135V67.865C512,42,490.957,20.959,465.094,20.959z M41.917,388.909H25.585v-67.493h16.332          V388.909z M41.917,190.47H25.585v-67.493h16.332V190.47z M486.415,444.135c0,11.757-9.564,21.321-21.321,21.321H88.823          c-11.757,0-21.321-9.564-21.321-21.321c0-4.737,0-363.583,0-376.272c0-11.757,9.564-21.321,21.321-21.321h376.272          c11.757,0,21.321,9.564,21.321,21.321V444.135z"></path>
                <circle cx="454.338" cy="256.003" r="15.114"></circle>
              </g>
            </g>
          </g>
        </symbol>
        <symbol class="icon-yellowCard" id="icon-yellowCard" viewbox="0 0 20 27.969">
          <metadata>
            <x:xmpmeta xmlns:x="adobe:ns:meta/" x:xmptk="Adobe XMP Core 5.6-c138 79.159824, 2016/09/14-01:09:01">
              <rdf:rdf xmlns:rdf="http://www.w3.org/1999/02/22-rdf-syntax-ns#">
                <rdf:description rdf:about=""></rdf:description>
              </rdf:rdf>
            </x:xmpmeta>
          </metadata>
          <defs></defs>
          <path class="cls-1" d="M1490.28,718.892a3.38,3.38,0,0,0-1.29-1.544l-2.42-1.414v1.234l1.89,1.105a2.416,2.416,0,0,1,.6.579,1.666,1.666,0,0,1,.23.416c0.02,0.045,1.66,4.5,1.66,7.139a2.16,2.16,0,0,1-.06.417,9.732,9.732,0,0,1-1.85,3.249c-0.41.528-.8,0.976-1.06,1.253a1.839,1.839,0,0,1-1.1.474h-3.99a0.768,0.768,0,0,1-.65-0.474s-2.23-6.693-2.23-6.694l-1.89-5.693-0.03-.092a1.39,1.39,0,0,1,.56-1.519,1.362,1.362,0,0,1,1.9.394l4.34,6.676a0.524,0.524,0,0,0,.73.152,0.534,0.534,0,0,0,.15-0.741l-0.11-.169-1.6-2.456h1.38a0.619,0.619,0,0,0,.61-0.617V705.514a0.619,0.619,0,0,0-.61-0.617h-10.06a0.612,0.612,0,0,0-.61.617v15.052a0.611,0.611,0,0,0,.61.617h2.37l0.18,0.534,0.79,2.369-1.78,1.8a1.1,1.1,0,0,1-1.57,0,1.148,1.148,0,0,1,0-1.59l0.95-.963,1.6-1.622h-1.49l-0.65.662-0.84.845a1.113,1.113,0,0,1-1.56,0,1.123,1.123,0,0,1,0-1.59l0.88-.9a0.974,0.974,0,0,1-.02-0.172v-1.321l-1.61,1.634a2.223,2.223,0,0,0,0,3.1,2.128,2.128,0,0,0,1.42.637,1.925,1.925,0,0,0-.06.48,2.194,2.194,0,0,0,.64,1.551,2.134,2.134,0,0,0,1.53.642h0a0.913,0.913,0,0,1,1.41,1.059,2.136,2.136,0,0,0,2.67.312l1,3.006a1.833,1.833,0,0,0,1.65,1.2h3.99a2.829,2.829,0,0,0,1.86-.805c0.33-.354,3.26-3.523,3.26-5.656C1492,723.577,1490.35,719.083,1490.28,718.892Zm-10.4,8.7a1.114,1.114,0,0,1-1.56,0,1.121,1.121,0,0,1,0-1.589l0.78-.788,0.78,2.377h0Z" transform="translate(-1472 -704.906)"></path>
        </symbol>
        <symbol id="icon-whistle" viewbox="0 0 24.906 24">
          <metadata>
            <x:xmpmeta xmlns:x="adobe:ns:meta/" x:xmptk="Adobe XMP Core 5.6-c138 79.159824, 2016/09/14-01:09:01        ">
              <rdf:rdf xmlns:rdf="http://www.w3.org/1999/02/22-rdf-syntax-ns#">
                <rdf:description rdf:about=""></rdf:description>
              </rdf:rdf>
            </x:xmpmeta>
          </metadata>
          <defs></defs>
          <path class="cls-1" d="M724.584,514.874a3.534,3.534,0,1,0,3.54-3.494,3.514,3.514,0,0,0-3.54,3.494h0Zm5.938,0a2.4,2.4,0,1,1-2.4-2.377h0a2.394,2.394,0,0,1,2.407,2.377h0Zm14.833-7.059H728.124a7.054,7.054,0,1,0,7.136,7.05,6.922,6.922,0,0,0-.055-0.875h6.982a0.556,0.556,0,0,0,.481-0.274l3.157-5.047a0.543,0.543,0,0,0-.148-0.76A0.559,0.559,0,0,0,745.355,507.815Zm-3.484,5.057h-7.339a0.547,0.547,0,0,0-.554.682,5.938,5.938,0,0,1-4.522,7.11,6.008,6.008,0,0,1-7.191-4.47,5.937,5.937,0,0,1,4.522-7.11,6.068,6.068,0,0,1,1.337-.149H744.33ZM726.1,501.022a0.543,0.543,0,0,0-.017.774,0.137,0.137,0,0,0,.017.017l2.852,2.9a0.57,0.57,0,0,0,.8.008,0.555,0.555,0,0,0,.008-0.791h0l-2.861-2.9a0.559,0.559,0,0,0-.783-0.025C726.114,501.011,726.108,501.016,726.1,501.022Zm14.545,0.008-2.858,2.889a0.558,0.558,0,0,0,0,.8,0.572,0.572,0,0,0,.8,0l2.861-2.9a0.555,0.555,0,0,0-.009-0.792A0.572,0.572,0,0,0,740.647,501.03Zm-7.436-2.576v4.413a0.565,0.565,0,0,0,1.13,0v-4.413A0.565,0.565,0,0,0,733.211,498.454Z" transform="translate(-721 -497.906)"></path>
        </symbol>
        <symbol id="icon-stadium" viewbox="0 0 25 17">
          <metadata>
            <x:xmpmeta xmlns:x="adobe:ns:meta/" x:xmptk="Adobe XMP Core 5.6-c138 79.159824, 2016/09/14-01:09:01        ">
              <rdf:rdf xmlns:rdf="http://www.w3.org/1999/02/22-rdf-syntax-ns#">
                <rdf:description rdf:about=""></rdf:description>
              </rdf:rdf>
            </x:xmpmeta>
          </metadata>
          <defs></defs>
          <path class="cls-1" d="M743.87,465.948H723.13A2.145,2.145,0,0,0,721,468.1v12.662a2.146,2.146,0,0,0,2.13,2.157h20.74a2.146,2.146,0,0,0,2.13-2.157V468.1A2.145,2.145,0,0,0,743.87,465.948Zm1.041,11.5h-2.165V471.42h2.165v6.031Zm-11.956-.672a2.414,2.414,0,0,1,0-4.688v4.688Zm1.089-4.688a2.414,2.414,0,0,1,0,4.688v-4.688Zm-11.955-.671h2.2v6.031h-2.2V471.42Zm0,9.347v-2.214h2.749a0.548,0.548,0,0,0,.545-0.551v-1.58a2.037,2.037,0,0,0,0-3.975v-1.578a0.548,0.548,0,0,0-.545-0.552h-2.749V468.1a1.048,1.048,0,0,1,1.041-1.053h9.825v3.92a3.514,3.514,0,0,0,0,6.929v3.921h-9.826A1.049,1.049,0,0,1,722.089,480.767Zm3.293-7.16a0.932,0.932,0,0,1,0,1.656v-1.656Zm18.488,8.214h-9.826V477.9a3.515,3.515,0,0,0,0-6.93v-3.92h9.826a1.049,1.049,0,0,1,1.041,1.054v2.213H742.2a0.548,0.548,0,0,0-.545.551v1.581a2.035,2.035,0,0,0,0,3.972V478a0.548,0.548,0,0,0,.545.551h2.709v2.213A1.049,1.049,0,0,1,743.87,481.821Zm-2.213-6.56a0.929,0.929,0,0,1,0-1.652v1.652Z" transform="translate(-721 -465.938)"></path>
        </symbol>
        <symbol id="icon-marker" viewBox="0 0 100 125">
          <path d="M50,12.9c-13.3,0-24.1,10.8-24.1,24.1C25.9,59.8,50,72.9,50,72.9S74.1,59.8,74.1,37C74.1,23.7,63.3,12.9,50,12.9z M50,49.6  c-6.6,0-12-5.4-12-12c0-6.6,5.4-12,12-12s12,5.4,12,12C62,44.2,56.6,49.6,50,49.6z"></path>
        </symbol>
        <symbol id="icon-no-data" viewbox="0 0 24 24">
          <path d="M10.3143438,12.9785494 L11.0458336,13.6612732 L8.9826443,15.7244625 C8.78738215,15.9197246 8.47079966,15.9197246 8.27553752,15.7244625 C8.08027537,15.5292003 8.08027537,15.2126178 8.27553752,15.0173557 L10.3143438,12.9785494 Z M12.436925,10.8559682 L15.0173557,8.27553752 C15.2126178,8.08027537 15.5292003,8.08027537 15.7244625,8.27553752 C15.9197246,8.47079966 15.9197246,8.78738215 15.7244625,8.9826443 L13.1684148,11.538692 L12.436925,10.8559682 Z M11.4691007,14.0563224 L12.4903583,15.0094962 C12.5713833,16.0835513 12.194181,17.16838 11.395684,17.9668764 L8.96628066,20.3880988 C8.25066079,21.1037187 7.29710896,21.5 6.28909091,21.5 C5.28107286,21.5 4.32752103,21.1037187 3.61190115,20.3880988 C2.89424182,19.6704395 2.5,18.7242591 2.5,17.7109091 C2.5,16.702891 2.89628128,15.7493392 3.61190115,15.0337193 L6.03371934,12.6119012 C6.75021506,11.8954054 7.70413066,11.5 8.71909091,11.5 C8.722795,11.5 8.7264984,11.5000054 8.73020111,11.5000162 L9.9105345,12.6016607 L9.8471734,12.742157 C9.49196023,12.5819628 9.11179215,12.5 8.71909091,12.5 C7.96943752,12.5 7.2698493,12.7899848 6.74082612,13.3190079 L4.31900794,15.7408261 C3.79062781,16.2692062 3.5,16.9685294 3.5,17.7109091 C3.5,18.4582863 3.78835558,19.1503397 4.31900794,19.6809921 C4.84738806,20.2093722 5.54671123,20.5 6.28909091,20.5 C7.03147059,20.5 7.73079376,20.2093722 8.2597706,19.6803964 L10.6891739,17.2591739 C11.510782,16.4375658 11.7256153,15.2017814 11.2569854,14.1509144 L11.4691007,14.0563224 Z M13.9277763,12.2474294 L13.7720782,12.1021112 L14.1528266,11.257843 C14.5080398,11.4180372 14.8882078,11.5 15.2809091,11.5 C16.0305985,11.5 16.7300447,11.209999 17.2584154,10.6809324 L19.6809921,8.25917388 C20.2093722,7.73079376 20.5,7.03147059 20.5,6.28909091 C20.5,5.54171368 20.2116444,4.84966029 19.6809921,4.31900794 C19.1526119,3.79062781 18.4532888,3.5 17.7109091,3.5 C16.9685294,3.5 16.2692062,3.79062781 15.7402294,4.31960364 L13.3108261,6.74082612 C12.489218,7.56243425 12.2743847,8.79821857 12.7430146,9.84908564 L11.8297127,10.2563689 C11.1941002,8.83105595 11.4861102,7.15132848 12.604316,6.03312363 L15.0337193,3.61190115 C15.7493392,2.89628128 16.702891,2.5 17.7109091,2.5 C18.7189271,2.5 19.672479,2.89628128 20.3880988,3.61190115 C21.1057582,4.32956049 21.5,5.27574086 21.5,6.28909091 C21.5,7.29710896 21.1037187,8.25066079 20.3880391,8.96634037 L17.9656952,11.387866 C17.2500462,12.1044579 16.2960481,12.5 15.2809091,12.5 C14.8141235,12.5 14.3582724,12.4144909 13.9277763,12.2474294 Z M19.8411591,19.1344724 C20.0430345,19.3228893 20.0539446,19.6392838 19.8655276,19.8411591 C19.6771107,20.0430345 19.3607162,20.0539446 19.1588409,19.8655276 L4.15884087,5.86552763 C3.95696554,5.67711065 3.94605538,5.36071621 4.13447237,5.15884087 C4.32288935,4.95696554 4.63928379,4.94605538 4.84115913,5.13447237 L19.8411591,19.1344724 Z"></path>
        </symbol>
        <!-- <symbol id="icon-close"   viewbox="0 0 384 512">
            <path d="M23.954 21.03l-9.184-9.095 9.092-9.174-2.832-2.807-9.09 9.179-9.176-9.088-2.81 2.81 9.186 9.105-9.095 9.184 2.81 2.81 9.112-9.192 9.18 9.1z"/>
        </symbol> -->
        <symbol id="icon-worldcup2" xmlns="http://www.w3.org/2000/svg" viewBox="0 0 576.918 576.918" xml:space="preserve">
            <g>
                <g>
                    <path d="M136.765,507.654v23.687c0,11.618,8.491,25.206,19.555,28.764c20.703,6.636,58.637,15.367,117.562,16.687
                c11.609,0.258,30.475,0.105,42.084-0.297c54.037-1.884,86.703-9.094,104.871-14.984c11.055-3.586,19.316-17.671,19.316-29.299
                v-24.557c0-8.778-21.82-16.601-55.959-21.755c-16.15-23.648-52.996-80.277-52.996-104.939c0-18.465,28.984-120.047,48.281-185.588
                c-6.273,3.414-12.947,5.775-20.014,6.263c-10.223,0.688-18.332-2.008-23.963-7.937c-5.844-6.178-8.559-15.338-8.1-27.311
                c-16.525,43.892-57.433,50.557-80.708,50.557c-4.342,0-8.3-0.229-11.829-0.535c8.205,17.25,18.044,35.276,29.682,51.714
                c2.505,3.557,1.664,8.491-1.884,11.006c-1.349,0.947-2.917,1.444-4.562,1.444c-2.562,0-4.972-1.243-6.445-3.328
                c-15.099-21.324-27.33-45.154-36.854-66.689c-0.01-0.01-0.019-0.01-0.019-0.019c-0.019-0.039-0.019-0.077-0.048-0.115
                c-8.243-18.685-14.468-35.659-18.446-47.545c-3.366-10.126-9.562-14.707-10.978-14.707h-1.932
                c12.441,41.281,62.328,208.567,62.328,232.799c0,24.662-36.844,81.301-52.995,104.939
                C158.596,491.054,136.765,498.876,136.765,507.654z" />
                    <path d="M363.817,123.48c-2.027,4.456-2.354,12.183-0.756,16.658l1.691,4.724c1.568,4.389,6.742,9.725,11.064,11.427l13.656,5.393
                c4.188-13.99,6.836-22.72,6.836-22.72s3.51-18.054,3.51-27.607c0-56.582-42.229-103.199-96.877-110.313
                c0.258,13.349,2.609,29.127,11.053,34.186c6.857,4.112,12.27,8.97,16.094,14.43c4.055,5.756,7.412,7.803,9.066,7.803
                c5.947,0,12.756,5.116,15.844,11.896c2.096,4.647,4.801,7.162,5.596,7.449c0.018,0,0.047,0,0.066,0
                c4.465,0,7.859,5.938,7.859,14.411v10.528C368.521,108.123,366.446,117.667,363.817,123.48z" />
                    <path d="M288.464,0c-61.496,0-111.346,49.849-111.346,111.355c0,7.229,0.957,14.2,2.314,21.028h5.9
                c6.149,0,11.724,3.5,16.256,8.539h13.541c7.975,0,14.468,6.493,14.468,14.468c0,3.624,2.955,6.579,6.589,6.579
                c7.143,0,15.558,4.695,19.163,10.691l5.259,8.769l9.362,17.385c17.767-4.475,35.208-15.616,43.605-40.545
                c5.383-15.969,10.529-25.876,19.508-25.876c2.992,0,5.756,1.243,7.764,3.51c3.787,4.293,4.553,11.293,2.773,25.809
                c-1.223,10.06-0.027,17.566,3.357,21.133c2.305,2.429,6.043,3.442,11.436,3.05c10.367-0.698,20.043-7.067,28.479-15.51
                c0.113-0.392,0.219-0.727,0.324-1.1l-14.295-5.642c-6.418-2.524-13.273-9.61-15.598-16.113l-1.682-4.724
                c-2.297-6.397-1.875-16.266,0.936-22.453c2.229-4.905,4.055-13.359,4.055-18.599V91.226c0-3.557-0.832-5.814-1.338-6.646
                c-5.088-0.746-9.535-7.65-11.428-11.819c-1.941-4.293-6.178-7.401-8.701-7.401c-6.35,0-11.943-6.072-15.52-11.16
                c-3.195-4.552-7.795-8.654-13.695-12.192c-12.268-7.354-14.869-27.109-15.012-41.683C292.786,0.201,290.645,0,288.464,0z" />
                    <path d="M236.176,169.849c-7.975,0-14.478-6.483-14.478-14.468c0-3.624-2.945-6.579-6.579-6.579h-7.889
                c1.664,2.936,3.041,6.024,4.064,9.056c3.529,10.585,8.941,25.379,15.97,41.73c4.179,0.775,11.427,1.827,20.206,1.827
                c4.552,0,9.362-0.296,14.257-1.004l-13.158-23.715C246.37,173.053,240.594,169.849,236.176,169.849z" />
                </g>
            </g>
        </symbol>
        <symbol id="icon-close"  xmlns="http://www.w3.org/2000/svg"  x="0px" y="0px" viewBox="0 0 1000 1000" xml:space="preserve">
          <path d="M538.7,500L980.5,58.2c6-6,9.5-14.1,9.5-22.3c0-7.1-2.7-13.7-7.5-18.5c-4.8-4.8-11.4-7.5-18.5-7.5c-8.1,0-16.2,3.5-22.2,9.5L500,461.3L58.2,19.5c-6-6-14.1-9.5-22.2-9.5c-7.1,0-13.7,2.7-18.5,7.5C12.7,22.2,10,28.8,10,36c0,8.1,3.5,16.1,9.5,22.2L461.3,500L19.5,941.8c-5.8,5.8-9.1,13.2-9.5,20.9c-0.3,7.6,2.3,14.7,7.4,19.8c4.8,4.8,11.4,7.4,18.5,7.4c8.1,0,16.2-3.4,22.2-9.5L500,538.7l441.8,441.8c11.3,11.3,30.4,12.2,40.7,2c10.7-10.7,9.8-28.9-2-40.7L538.7,500z"></path>
        </symbol>
        <!-- <symbol id="icon-cup" xmlns="http://www.w3.org/2000/svg" viewBox="0 0 50 50" enable-background="new 0 0 50 50">
            <path d="M 24.75 0.15625 C 18.45 0.15625 13.34375 5.05625 12.84375 11.15625 C 13.14375 11.05625 13.45 10.9375 13.75 10.9375 L 13.9375 10.9375 C 14.2375 10.9375 14.54375 11.05625 14.84375 11.15625 C 14.94375 10.65625 15.05625 10.0625 15.15625 9.5625 C 15.45625 8.5625 16.24375 7.7375 17.34375 7.4375 C 17.64375 7.3375 17.95 7.34375 18.25 7.34375 C 21.05 7.34375 21.95 10.05625 22.75 12.65625 C 23.75 11.65625 25.15 11.0625 26.75 11.0625 C 28.25 11.0625 29.65625 11.6625 30.65625 12.5625 C 31.65625 10.0625 32.65625 8.1625 34.65625 7.5625 C 34.95625 7.4625 35.35 7.34375 35.75 7.34375 C 33.75 3.04375 29.55 0.15625 24.75 0.15625 z M 18.1875 9.28125 C 18.08269 9.2913086 17.95625 9.3125 17.84375 9.34375 C 17.24375 9.54375 17.04375 10.05625 16.84375 10.65625 C 16.24375 12.35625 17.15625 17.15 18.15625 21.75 C 19.65625 28.35 21.35625 35.8625 18.15625 43.0625 C 18.05625 43.2625 17.7375 43.85 17.4375 44.25 C 16.7375 45.55 16.25 46.4625 16.25 47.0625 C 16.25 49.6625 22.65625 49.84375 24.65625 49.84375 C 26.65625 49.84375 33.0625 49.6625 33.0625 47.0625 C 33.0625 46.3625 32.54375 45.55 31.84375 44.25 C 31.54375 43.85 31.25625 43.3625 31.15625 43.0625 C 31.15625 43.0625 29.15 38.45625 29.75 33.65625 C 27.55 36.65625 25.9375 39.5375 25.9375 43.9375 C 25.9375 44.5375 25.5375 44.9375 24.9375 44.9375 C 24.4375 44.9375 23.9375 44.5375 23.9375 43.9375 C 23.9375 37.9375 26.6625 34.4625 29.5625 30.5625 C 32.9625 26.0625 36.85625 20.9375 37.15625 10.4375 C 37.15625 9.5375 36.15 9.14375 35.25 9.34375 C 32.45 10.14375 34.35 22.0625 26.75 22.0625 C 21.05 22.0625 21.05 15.4375 20.75 13.4375 C 20.46875 11.28125 19.759644 9.1303711 18.1875 9.28125 z M 13.9375 12.9375 C 13.3375 12.9375 12.9625 13.4625 13.0625 14.0625 C 13.1625 15.8625 14.14375 19.6625 15.34375 24.0625 C 16.14375 27.3625 17.1375 31.25625 17.9375 34.65625 C 18.0375 30.35625 17.05 26.15 16.25 22.25 C 15.45 18.95 14.75 16.04375 14.75 13.34375 C 14.55 13.04375 14.2375 12.9375 13.9375 12.9375 z M 26.75 13.0625 C 24.540861 13.0625 22.75 14.853361 22.75 17.0625 C 22.75 19.271639 24.540861 21.0625 26.75 21.0625 C 28.959139 21.0625 30.75 19.271639 30.75 17.0625 C 30.75 14.853361 28.959139 13.0625 26.75 13.0625 z"/>
        </symbol> -->
        <symbol id="icon-crown" version="1.1" xmlns="http://www.w3.org/2000/svg" xmlns:xlink="http://www.w3.org/1999/xlink" x="0px" y="0px" viewBox="0 0 511.995 511.995" style="enable-background:new 0 0 511.995 511.995;" xml:space="preserve">
          <g>
            <path style="fill:#FF515E;" d="M256,162.673L256,162.673L256,162.673z"/>
            <path style="fill:#FF515E;" d="M256,162.673L256,162.673L256,162.673z"/>
          </g>
          <path style="fill:#FFDB69;" d="M14.416,345.607V240.315l11.143,8.183c0.281,0.206,28.946,20.976,68.608,31.513l3.23,0.858
            l32.061,71.738L14.416,345.607z"/>
          <g>
            <path style="fill:#FFC813;" d="M382.543,352.607l32.061-71.738l3.23-0.858c39.801-10.573,68.325-31.304,68.608-31.513l11.143-8.183
              v105.293L382.543,352.607z"/>
            <path style="fill:#FFC813;" d="M316.696,214.777l-2.391-2.091c-32.45-28.394-51.97-53.271-52.785-54.317l-5.52-7.076
              l-20.016,221.329l80.712-20.016L316.696,214.777L316.696,214.777z"/>
          </g>
          <path style="fill:#FFDB69;" d="M255.999,151.293l-5.52,7.077c-0.815,1.046-20.335,25.924-52.785,54.317l-2.391,2.091v137.829
            L256,372.622V151.294L255.999,151.293z"/>
          <path style="fill:#FF515E;" d="M256,162.673c11.827,0,21.415-9.588,21.415-21.415c0-11.827-9.588-21.416-21.415-21.416
            l-10.008,21.415L256,162.673L256,162.673z"/>
          <path style="fill:#FF8891;" d="M256,119.843c-11.827,0-21.415,9.588-21.415,21.416s9.588,21.415,21.415,21.415l0,0V119.843z"/>
          <path style="fill:#FFDB69;" d="M404.824,176.212c0,0-90.453,3.666-135.404,81.523c-5.857,10.145-10.233,20.328-13.42,30.368
            l-20.016,81.166l156.063-20.016c3.476-4.674,6.788-9.664,9.878-15.016C446.876,256.379,404.824,176.212,404.824,176.212z"/>
          <path style="fill:#FFEBAE;" d="M242.58,257.736c-44.951-77.857-135.404-81.523-135.404-81.523s-42.052,80.167,2.899,158.025
            c3.09,5.353,6.402,10.342,9.878,15.016L256,369.27v-81.166C252.812,278.064,248.437,267.88,242.58,257.736z"/>
          <polygon style="fill:#FFAB00;" points="497.585,345.607 256,345.607 235.387,369.63 256,392.152 497.585,392.152 "/>
          <rect x="14.416" y="345.607" style="fill:#FFC813;" width="241.58" height="46.545"/>
          <circle style="fill:#FF8891;" cx="21.415" cy="232.728" r="21.415"/>
          <circle style="fill:#FF515E;" cx="490.58" cy="232.728" r="21.415"/>
        </symbol>
        <symbol id="icon-cup" version="1.1"  xmlns="http://www.w3.org/2000/svg" xmlns:xlink="http://www.w3.org/1999/xlink" x="0px" y="0px" viewBox="0 0 48 48" style="enable-background:new 0 0 48 48;" xml:space="preserve">
          <path style="fill:#B57E02;" d="M25,39h4c0,0-0.938-4.062-0.938-7.062C28.062,29.701,28,17,28,17L25,39z"/>
          <path style="fill:#5EC08F;" d="M17,45l2-6h10l2,6c0,0,0,1-1,1s-11,0-12,0S17,45,17,45z"/>
          <g>
            <circle style="fill:#DD9F05;" cx="24" cy="12" r="10"/>
            <path style="fill:#DD9F05;" d="M22,39c0,0,7-19,10-19c-2,5-3,15-6,19H22z"/>
          </g>
          <polygon style="fill:#398E5F;" points="29.666,41 29,39 19,39 18.334,41 "/>
          <g>
            <path style="fill:#FFC107;" d="M16,14c0-5.523,4.478-10,10-10c2.251,0,4.32,0.754,5.992,2.008C30.168,3.578,27.271,2,24,2
              c-5.522,0-10,4.477-10,10c0,3.271,1.579,6.168,4.008,7.992C16.753,18.32,16,16.25,16,14z"/>
            <path style="fill:#FFC107;" d="M13,15c0,0,5,6,6,10s1,6,0,14h6c0,0-1.337-23.799-4.563-22.187C18.729,18.293,16,19,13,15z"/>
          </g>
          <g>
            <ellipse style="fill:#B57E02;" cx="26" cy="15.75" rx="3" ry="3.75"/>
            <path style="fill:#B57E02;" d="M27,20c2.457,0,4.156-3.392,5.103-6.011L33,11c0,0-3,6-6,7c-2.377,0.792-5.049-3.194-6.058-4.887
              C22.397,15.823,23.812,20,27,20z"/>
            <path style="fill:#B57E02;" d="M18.125,12.458c-0.002-0.003-0.003-0.006-0.005-0.009c0.242,0.991,0.661,3.315-0.654,3.544
              c-1.018,0.011-2.321-0.576-3.466-2.966l-0.992,1.983c0.018,0.022,0.215,0.261,0.531,0.661c2.733,3.177,5.196,2.555,6.804,1.217
              C19.364,14.722,18.419,12.987,18.125,12.458z"/>
          </g>
          <path style="fill:#FFE082;" d="M34,10c-0.553,0-1,0.447-1,1c0,0-2,9-6,9s-5.208-6.583-7.208-8.583l0,0C19.61,11.171,19.331,11,19,11
            c-0.553,0-1,0.447-1,1c0,0.091,0.029,0.173,0.052,0.256l-0.031,0.015c0,0,0.02,0.035,0.053,0.095
            c0.013,0.033,0.034,0.06,0.051,0.091C18.809,13.689,23,21.408,23,26c0,5-4,13-4,13h3c2-3,13-22,13-28C35,10.447,34.553,10,34,10z"/>
          <ellipse style="fill:#FFE082;" cx="27" cy="15.5" rx="2" ry="2.5"/>
        </symbol>
        <symbol  id="icon-compass" viewBox="0 0 100 100" enable-background="new 0 0 100 100" xml:space="preserve">
          <path  d="M56.945,14.607C58.74,13.849,60,12.072,60,10c0-2.762-2.238-5-5-5H45c-2.762,0-5,2.238-5,5  c0,2.072,1.26,3.849,3.055,4.607C23.998,17.902,9.5,34.503,9.5,54.5C9.5,76.868,27.632,95,50,95s40.5-18.132,40.5-40.5  C90.5,34.503,76.002,17.902,56.945,14.607z M54.766,86.545L50,80.35l-4.766,6.195c-14.085-2.085-25.239-13.264-27.29-27.36  L24.1,54.45l-6.144-4.726c2.088-14.076,13.26-25.225,27.347-27.279L50,28.551l4.696-6.105C68.783,24.5,79.955,35.648,82.044,49.723  l-6.146,4.727l6.157,4.736C80.004,73.282,68.851,84.46,54.766,86.545z"/>
          <polygon  points="38.126,36.087 45.855,57.173 61.874,72.914 54.145,51.827 "/>
        </symbol>

        </defs>
      </svg>
