
<svg  version="1.0" xmlns="http://www.w3.org/2000/svg" xmlns:xlink="http://www.w3.org/1999/xlink">
    <defs>
       
        <symbol id="restaurant" xmlns="http://www.w3.org/2000/svg"  version="1.1" x="0px" y="0px" viewBox="0 0 100 125" enable-background="new 0 0 100 100" xml:space="preserve">    
            <path d="M11.415 12.393l1.868-2.289c.425-.544.224-.988-.055-2.165-.205-.871-.044-1.854.572-2.5 1.761-1.844 5.343-5.439 5.343-5.439l.472.37-3.693 4.728.79.617 3.87-4.59.479.373-3.558 4.835.79.618 3.885-4.58.443.347-3.538 4.85.791.617 3.693-4.728.433.338s-2.55 4.36-3.898 6.535c-.479.771-1.425 1.161-2.334 1.167-1.211.007-1.685-.089-2.117.464l-2.281 2.795c2.445 2.962 4.559 5.531 5.573 6.829.771.987.065 2.421-1.198 2.421-.42 0-.853-.171-1.167-.573l-8.36-10.072s-.926.719-1.944 1.518c-3.172-5.184-6.267-11.661-6.267-13.955 0-.128-.034-.924.732-.924.245 0 .493.116.674.344.509.642 5.415 6.513 10.002 12.049m-2.952 3.617l1.953 2.365-4.115 5.055c-.295.378-.736.576-1.182.576-1.198 0-1.991-1.402-1.189-2.428l4.533-5.568z"/>
        </symbol>
        <symbol id="free_wifi" xmlns="http://www.w3.org/2000/svg"  version="1.1" x="0px" y="0px" viewBox="0 0 100 125" enable-background="new 0 0 100 100" xml:space="preserve">    
            <path d="M12 16.32c.843 0 1.65.257 2.345.735l-2.345 2.487-2.345-2.487c.695-.478 1.502-.735 2.345-.735zm0-1c-1.479 0-2.817.636-3.787 1.664l3.787 4.016 3.787-4.016c-.97-1.028-2.308-1.664-3.787-1.664zm0-5.116c2.387 0 4.648.876 6.461 2.485l-.969 1.028c-1.556-1.308-3.472-2.018-5.492-2.018-2.021 0-3.937.71-5.492 2.018l-.969-1.028c1.813-1.609 4.074-2.485 6.461-2.485zm0-1c-3.071 0-5.852 1.32-7.864 3.455l2.33 2.472c1.417-1.502 3.373-2.431 5.534-2.431s4.117.929 5.534 2.431l2.33-2.472c-2.012-2.135-4.793-3.455-7.864-3.455zm0-5.204c3.949 0 7.682 1.517 10.607 4.291l-1.021 1.083c-2.656-2.452-6.023-3.791-9.586-3.791s-6.93 1.339-9.586 3.791l-1.021-1.083c2.925-2.774 6.658-4.291 10.607-4.291zm0-1c-4.687 0-8.929 2.015-12 5.272l2.389 2.533c2.459-2.609 5.857-4.222 9.611-4.222s7.152 1.613 9.611 4.222l2.389-2.533c-3.071-3.257-7.313-5.272-12-5.272z"/>
        </symbol>
        <symbol id="free_parking" xmlns="http://www.w3.org/2000/svg"  version="1.1" x="0px" y="0px" viewBox="0 0 100 125" enable-background="new 0 0 100 100" xml:space="preserve">    
            <path d="M19.688 5.176c0 .82-.603 1.109-1.423 1.109h-.509v-2.178h.704c.775 0 1.228.283 1.228 1.069zm4.312-1.884v6.417c0 1.265-1.026 2.291-2.292 2.291h-6.417c-1.265 0-2.291-1.026-2.291-2.292v-6.416c0-1.266 1.026-2.292 2.292-2.292h6.417c1.265 0 2.291 1.026 2.291 2.292zm-2.75 1.829c0-.759-.231-1.33-.691-1.713-.461-.383-1.134-.574-2.019-.574h-2.331v7.333h1.547v-2.609h.664c.905 0 1.603-.209 2.094-.627.49-.418.736-1.021.736-1.81zm-4.25 11.378c0 .828.672 1.5 1.5 1.5s1.5-.672 1.5-1.5-.672-1.5-1.5-1.5-1.5.671-1.5 1.5zm-8.5.501c-.276 0-.5.223-.5.499s.224.5.5.5h7c.276 0 .5-.224.5-.5s-.224-.499-.5-.499h-7zm-4.5-.501c0 .828.672 1.5 1.5 1.5s1.5-.672 1.5-1.5-.672-1.5-1.5-1.5-1.5.671-1.5 1.5zm-1.298-6.5h-2.202c-.276 0-.5.224-.5.5v.511c0 .793.926.989 1.616.989l1.086-2zm19.006 4.001h-1.511c.474.89.803 1.655.803 2.972 0 1.673-1.355 3.028-3.026 3.028h-11.948c-1.671 0-3.026-1.355-3.026-3.028 0-1.641.506-2.421 1.184-3.678 1.041.206 3.967.705 7.816.705.877 0 1.728-.029 2.532-.076-1.203-.217-2.227-.933-2.859-1.929-2.895-.023-5.237-.339-6.478-.55.382-.686.779-1.386 1.184-2.061.67-1.117.852-1.149 1.39-1.246 1.011-.181 1.984-.272 3.231-.302v-2.002c-1.382.031-2.451.132-3.585.335-1.381.248-1.965.875-2.751 2.187-.981 1.637-1.913 3.382-2.684 4.812-.687 1.273-.98 2.411-.98 3.805 0 1.318.42 2.415 1 3.817v2.209c0 .553.448 1.002 1 1.002h1.5c.552 0 1-.449 1-1.001v-1h13v1c0 .552.448 1.001 1 1.001h1.5c.552 0 1-.449 1-1.001v-2.209c.58-1.403 1-2.499 1-3.817 0-1.109-.196-2.058-.618-3.041-.221.035-.443.068-.674.068z"/>
        </symbol>
        <symbol id="gym" xmlns="http://www.w3.org/2000/svg"  version="1.1" x="0px" y="0px" viewBox="0 0 100 125" enable-background="new 0 0 100 100" xml:space="preserve">    
            <path d="M24 24h-24v-2h2v-14h-2v-2h24v2h-2v14h2v2zm-13-5h-2v4h2v-4zm4 0h-2v4h2v-4zm5-11h-16v14h3v-5h10v5h3v-14zm-6 7h-4v-5h4v5zm-5 0h-4v-5h4v5zm10 0h-4v-5h4v5zm-10-12v1c0 .551-.447 1-1 1-.552 0-1-.448-1-1v-3c0-.552.448-1 1-1 .553 0 1 .449 1 1v1h6v-1c0-.551.447-1 1-1 .553 0 1 .449 1 1v3c0 .551-.447 1-1 1-.553 0-1-.449-1-1v-1h-6zm9.5 0v.5c0 .276-.224.5-.5.5s-.5-.224-.5-.5v-2c0-.276.224-.5.5-.5s.5.224.5.5v.5h.5v1h-.5zm-13-1v-.5c0-.276.224-.5.5-.5s.5.224.5.5v2c0 .276-.224.5-.5.5s-.5-.224-.5-.5v-.5h-.5v-1h.5z"/>
        </symbol>
        <symbol id="spa" xmlns="http://www.w3.org/2000/svg"  version="1.1" x="0px" y="0px" viewBox="0 0 100 125" enable-background="new 0 0 100 100" xml:space="preserve">    
            <g id="Layer_4">
                <g>
                    <path d="M6.295,48h10.088V12.693H6.295V48z M8.817,15.215h5.044v30.264H8.817V15.215z"/>
                    <path d="M11.339,10.171c2.088,0,3.783-1.694,3.783-3.783c0-0.583-0.143-1.129-0.379-1.622    c-0.974-2.687-3.403-4.683-3.403-4.683s0,1.524-2.089,3.152C9.248,3.237,9.247,3.238,9.246,3.24    C9.16,3.297,9.089,3.372,9.009,3.436C8.616,3.798,7.62,4.872,7.564,6.477C7.613,8.523,9.28,10.171,11.339,10.171z" />
                    <path d="M30.33,25.251c-6.278,0-11.373,5.093-11.373,11.375v9.246V48h2.522h1.97h6.881    c6.015,0,10.927-4.673,11.336-10.583h0.039V25.251H30.33z M21.479,45.479v-8.827c0-4.875,3.952-8.827,8.826-8.827h8.826    L21.479,45.479z"/>
                </g>
            </g>
        </symbol>
        <symbol id="pets" xmlns="http://www.w3.org/2000/svg"  version="1.1" x="0px" y="0px" viewBox="0 0 100 125" enable-background="new 0 0 100 100" xml:space="preserve">    
            <path d="M11 23l-7.981.014v-10l8.981-8c3 2.668 6 5.319 9 7.986v10l-7.981.014v-2c0-.018.011-.72-.001-1.052-.027-.421-.29-.743-.634-.88-.237-.09-.5-.089-.73 0-.344.137-.627.425-.654.845-.013.351 0 1.073 0 1.073v2zm4-2h4l.019-7.098-7.019-6.212-7 6.232v7.078h4l.019-.986c.017-1.379.889-2.421 1.969-2.816.657-.244 1.405-.244 2.062 0 1.097.401 1.933 1.437 1.95 2.802v1zm-3.739-8h1.478c1.171.017 1.265-.986 2.261-.986.644 0 .996.524 1 1 .004.476-.28.826-.623.997.328.177.62.527.623 1.003.003.476-.348 1-1 1-.996 0-1.09-1.031-2.261-1.014h-1.465c-1.171-.017-1.278 1.014-2.274 1.014-.652 0-1.003-.524-1-1 .003-.476.295-.826.623-1.003-.343-.171-.627-.521-.623-.997.004-.476.357-1 1-1 .996 0 1.09 1.003 2.261.986m.739-12l12 10.674-1.31 1.481-10.68-9.494-10.681 9.494-1.329-1.495 12-10.66z"/>
        </symbol>
        <symbol id="pool" xmlns="http://www.w3.org/2000/svg"  version="1.1" x="0px" y="0px" viewBox="0 0 100 125" enable-background="new 0 0 100 100" xml:space="preserve">    
            <g><g><path d="M21.62,33.828V32.6h3.501c1.153-0.602,2.369-1.432,3.676-2.584c0.397-0.352,0.755-0.637,1.123-0.938h-8.3    v-3.251h13.327v0.032c1.03-0.434,1.946-0.674,2.827-0.86V9.962c0-0.05,0.017-0.102,0.017-0.152V9.607    c0.017-4.674,2.794-3.928,2.794-3.928c1.64,0.169,2.014,2.455,2.097,3.759c0.085,0.83,0.661,0.897,0.661,0.897h1.27    c0.489,0,0.593-0.373,0.593-0.661c-0.017-0.102-0.017-0.203-0.034-0.321V9.335c-0.118-0.964-0.319-2.438-0.591-3.233    c-0.169-0.423-0.391-0.796-0.629-1.101c-0.05-0.068-0.099-0.135-0.152-0.203c-0.065-0.067-0.119-0.135-0.185-0.186    c-0.136-0.136-0.271-0.254-0.407-0.356c-0.137-0.118-0.288-0.22-0.44-0.321c0-0.016-0.017-0.016-0.017-0.016    c-0.287-0.17-0.574-0.306-0.898-0.424c-0.456-0.17-0.863-0.237-1.167-0.289c-0.187-0.016-0.355-0.033-0.543-0.033    c-0.016,0-0.032,0-0.032,0h-0.083c-2.795,0-5.079,2.285-5.079,5.08v7.145H21.62V9.962c0-0.05,0.018-0.102,0.018-0.152V9.607    c0-4.674,2.794-3.928,2.794-3.928c1.626,0.169,2.015,2.455,2.099,3.759c0.086,0.83,0.662,0.897,0.662,0.897h1.269    c0.49,0,0.592-0.373,0.592-0.661c-0.016-0.102-0.016-0.203-0.033-0.321V9.335c-0.119-0.964-0.321-2.438-0.594-3.233    c-0.168-0.423-0.388-0.796-0.627-1.101c-0.049-0.068-0.101-0.135-0.151-0.203c-0.068-0.067-0.117-0.135-0.186-0.186    c-0.136-0.136-0.27-0.254-0.406-0.356c-0.136-0.118-0.287-0.22-0.439-0.321c0-0.016-0.019-0.016-0.019-0.016    c-0.288-0.17-0.575-0.306-0.896-0.424c-0.457-0.17-0.864-0.237-1.169-0.289c-0.187-0.016-0.354-0.033-0.542-0.033    c-0.017,0-0.033,0-0.033,0h-0.084c-2.795,0-5.079,2.285-5.079,5.08V34.07C19.712,34.074,20.65,34.012,21.62,33.828z M21.62,18.919    h13.327v3.386H21.62V18.919z"/></g><g><path d="M40.631,27.84c0,0,6.562-1.693,13.334,3.016c1.957,1.534,3.809,2.699,2.486,4.285    c-0.741,0.689-1.376,1.328-3.704-1.057c-2.274-1.536-5.869-3.832-12.116-2.912c-2.434,0.477-4.232,1.112-7.67,4.339    c-3.439,3.229-8.573,5.504-14.021,5.027c-5.45-0.477-8.308-2.541-11.324-5.133c-0.634-0.846-0.634-1.744-0.264-2.275    c0.37-0.529,1.799-1.059,2.593-0.264c0.793,0.795,4.551,3.969,8.254,4.18c3.704,0.213,7.407,0.422,12.381-3.969    C35.552,28.687,38.039,28.369,40.631,27.84z"/></g><g><path d="M59.682,53.098c0,1.621-1.313,2.934-2.933,2.934h-49.5c-1.62,0-2.934-1.312-2.934-2.934V11.761H0.042    v45.681c0,1.869,1.516,3.385,3.386,3.385h57.146c1.867,0,3.385-1.516,3.385-3.385V11.761h-4.276V53.098z"/></g></g>
        </symbol>
    </defs>
</svg>
